<svg xmlns="http://www.w3.org/2000/svg" width="1712" height="670" viewBox="0 0 1712 670"><g fill="#FFF"><path d="M749.88 606.236c0-8.928 3.078-16.45 9.238-22.565 6.16-6.11 13.73-9.17 22.713-9.17s16.54 3.06 22.67 9.18c6.14 6.12 9.2 13.64 9.2 22.57 0 9.12-3.06 16.82-9.19 23.1-6.13 6.28-13.68 9.42-22.67 9.42-8.98 0-16.55-3.14-22.71-9.41s-9.24-13.97-9.24-23.1zm8.98 0c0 6.928 2.228 12.746 6.683 17.455 4.455 4.71 9.885 7.07 16.288 7.07s11.82-2.36 16.25-7.08c4.43-4.72 6.64-10.53 6.64-17.43 0-6.75-2.21-12.4-6.64-16.94s-9.84-6.8-16.24-6.8-11.83 2.27-16.28 6.81-6.68 10.19-6.68 16.94zm62.828 9.434v-40.14h8.725v40.17c0 4.703 1.403 8.388 4.21 11.054 2.81 2.667 6.62 4 11.433 4 4.87 0 8.73-1.333 11.582-4 2.85-2.666 4.276-6.408 4.276-11.226V575.53h8.725v40.14c0 6.875-2.27 12.44-6.8 16.695s-10.42 6.382-17.69 6.382c-7.27 0-13.16-2.127-17.69-6.382-4.53-4.255-6.79-9.82-6.79-16.696zm61.152 22.003V575.53h18.996c5.214 0 9.082.473 11.604 1.418 3.237 1.175 5.794 3.26 7.67 6.253 1.877 3 2.815 6.52 2.815 10.56 0 3.98-1.01 7.49-3.028 10.53-2.02 3.05-4.733 5.13-8.14 6.25v.17c.457.52 1.07 1.47 1.846 2.84l13.19 24.14h-9.842l-13.08-24.75h-13.3v24.76h-8.72zm8.724-32.318h12.483c3.402 0 6.083-1.01 8.043-3.03 1.96-2.02 2.938-4.763 2.938-8.23 0-4.583-1.645-7.778-4.934-9.583-1.744-.945-4.575-1.418-8.493-1.418h-10.03v22.26zm58.442.967c0-9.043 3.008-16.607 9.024-22.694 6.017-6.086 13.552-9.13 22.605-9.13 2.808 0 5.5.275 8.08.825 2.578.55 4.705 1.23 6.38 2.042 1.678.81 3.16 1.628 4.45 2.453s2.22 1.542 2.793 2.15l.902.78-4.298 6.527c-.516-.516-1.282-1.146-2.3-1.89-1.017-.743-3.094-1.745-6.23-3.005-3.138-1.26-6.282-1.89-9.434-1.89-6.82 0-12.355 2.27-16.61 6.806-4.254 4.537-6.382 10.184-6.382 16.938 0 6.813 2.155 12.603 6.468 17.37 4.312 4.765 9.85 7.147 16.61 7.147 3.467 0 6.797-.67 9.992-2.01 3.194-1.34 5.522-2.69 6.983-4.03l2.19-2.02 4.68 6.23c-.23.29-.57.65-1.01 1.09-.45.45-1.45 1.22-3.01 2.34s-3.21 2.1-4.94 2.97c-1.74.87-3.96 1.67-6.69 2.38s-5.55 1.07-8.47 1.07c-9.23 0-16.83-3.1-22.82-9.31-5.99-6.2-8.98-13.91-8.98-23.11zm63.988 31.35V575.53h8.725v62.143h-8.73zm13.75-54.578v-7.563h51.312v7.57h-21.273v54.58h-8.724V583.1h-21.32z"/><path d="M1078.41 575.53h9.884l11.518 20.413 3.78 7.864h.173c1.23-2.864 2.493-5.485 3.782-7.864l11.346-20.413h9.885l-20.758 35.842v26.3h-8.724v-26.3l-20.887-35.842zm50.094 62.143v-8.724h8.982v8.72h-8.982zm37.532-31.437c0-8.928 3.08-16.45 9.24-22.565 6.16-6.11 13.73-9.17 22.712-9.17s16.538 3.06 22.67 9.18c6.13 6.12 9.196 13.64 9.196 22.57 0 9.12-3.065 16.82-9.196 23.1-6.132 6.28-13.688 9.42-22.67 9.42-8.98 0-16.553-3.14-22.713-9.41s-9.24-13.97-9.24-23.1zm8.982 0c0 6.928 2.228 12.746 6.683 17.455 4.46 4.71 9.89 7.07 16.29 7.07s11.82-2.36 16.25-7.08 6.64-10.53 6.64-17.43c0-6.75-2.21-12.4-6.64-16.94s-9.84-6.8-16.24-6.8-11.83 2.27-16.29 6.81-6.68 10.19-6.68 16.94zm62.475 9.434v-40.14h8.725v40.17c0 4.703 1.403 8.388 4.21 11.054 2.81 2.667 6.62 4 11.433 4 4.88 0 8.74-1.333 11.59-4 2.85-2.666 4.28-6.408 4.28-11.226V575.53h8.73v40.14c0 6.875-2.26 12.44-6.79 16.695s-10.42 6.382-17.68 6.382-13.15-2.127-17.68-6.382c-4.52-4.255-6.79-9.82-6.79-16.696zm60.8 22.003V575.53h18.996c5.21 0 9.08.473 11.6 1.418 3.23 1.175 5.79 3.26 7.67 6.253 1.87 3 2.81 6.52 2.81 10.56 0 3.98-1.01 7.49-3.03 10.53-2.02 3.05-4.74 5.13-8.14 6.25v.17c.45.52 1.07 1.47 1.84 2.84l13.19 24.14h-9.84l-13.09-24.75H1307v24.76h-8.725zm8.725-32.318h12.483c3.41 0 6.09-1.01 8.05-3.03 1.96-2.02 2.94-4.763 2.94-8.23 0-4.583-1.64-7.778-4.93-9.583-1.74-.945-4.57-1.418-8.49-1.418h-10.04v22.26zm60.057 32.318l5.01-62.143h9.167l14.255 33.606 3.09 8.38h.173c1.116-3.294 2.147-6.087 3.092-8.38l14.212-33.606h9.148l5.028 62.143h-8.64l-3.047-39.15-.087-9.154h-.214c-1.23 3.81-2.333 6.86-3.307 9.15l-12.407 27.98h-7.73l-12.32-27.98c-.945-2.24-2.062-5.35-3.35-9.33h-.172c.028.91.043 1.8.043 2.66 0 2.55-.08 4.77-.22 6.66l-3.01 39.15h-8.73zm69.74-31.437c0-8.928 3.08-16.45 9.24-22.565 6.16-6.11 13.73-9.17 22.71-9.17s16.54 3.06 22.67 9.18c6.13 6.12 9.197 13.64 9.197 22.57 0 9.12-3.065 16.82-9.196 23.1-6.132 6.28-13.688 9.42-22.67 9.42-8.98 0-16.553-3.14-22.713-9.41s-9.24-13.97-9.24-23.1zm8.98 0c0 6.928 2.23 12.746 6.684 17.455 4.45 4.71 9.88 7.07 16.28 7.07s11.82-2.36 16.24-7.08c4.42-4.72 6.64-10.53 6.64-17.43 0-6.75-2.22-12.4-6.64-16.94s-9.84-6.8-16.25-6.8-11.84 2.27-16.29 6.81-6.69 10.19-6.69 16.94zm63.38 31.437V575.53h8.637l27.598 40.396c.716 1.004 1.495 2.25 2.34 3.74.844 1.49 1.537 2.735 2.08 3.738l.773 1.504h.172c-.4-3.696-.602-6.69-.602-8.982V575.53h8.725v62.143h-8.553l-27.685-40.312c-1.517-2.29-3.248-5.31-5.193-9.06h-.173c.403 3.7.604 6.72.604 9.07v40.32h-8.724zm62.475 0V575.53h36.056v7.563h-27.332v19.468h22.262v7.57h-22.262v19.99h28.837v7.57h-37.56zm38.495-62.143h9.885l11.518 20.413 3.78 7.864h.173c1.24-2.864 2.5-5.485 3.79-7.864l11.35-20.413h9.89l-20.76 35.842v26.3h-8.72v-26.3l-20.88-35.842zm48.425 62.143v-8.724h8.98v8.72h-8.98z"/></g><path d="M752.628 299.266V123.708h62.646c16.11 0 29.118 3.996 39.02 11.988 9.9 7.99 14.85 19.056 14.85 33.192 0 8.202-1.855 15.6-5.566 22.193-3.713 6.6-8.805 11.7-15.28 15.32v.49c9.36 2.67 16.483 7.88 21.368 15.63 4.884 7.75 7.327 16.35 7.327 25.8 0 16.66-5.768 29.32-17.3 37.98-11.534 8.66-25.97 12.98-43.31 12.98H752.63zm31.875-104.08h30.982c6.776 0 12.1-2.1 15.974-6.302 3.87-4.204 5.8-9.567 5.8-16.093 0-6.52-1.9-11.76-5.69-15.73s-9.36-5.94-16.7-5.94H784.5v44.07zm0 76.67h34.12c7.902 0 14.132-2.353 18.69-7.062 4.558-4.71 6.836-10.846 6.836-18.413 0-7.4-2.28-13.46-6.84-18.17-4.56-4.71-10.79-7.06-18.69-7.06H784.5v50.71zm112.437 27.41V123.708h56.797c16.39 0 28.216 1.65 35.483 4.95 8.96 4.106 16.006 10.284 21.134 18.534 5.126 8.252 7.69 18.05 7.69 29.4 0 10.67-2.708 20.398-8.12 29.182-5.413 8.784-12.72 15.02-21.915 18.712v.48c1.62 1.614 3.62 4.478 5.98 8.59l36.1 65.71h-35.61l-35.05-65.803h-30.62v65.804h-31.87zm31.875-93.213h28.68c8.55 0 15.303-2.434 20.265-7.305 4.962-4.87 7.442-11.65 7.442-20.345 0-9.096-2.38-15.917-7.14-20.466-4.76-4.547-13.11-6.822-25.048-6.822h-24.2v54.938zm118.895 93.213V123.708h31.874v175.558h-31.875zm58.175-20.813l17.266-24.057c.49.487 1.23 1.153 2.23 2.002 1 .85 3.03 2.344 6.08 4.484 3.05 2.142 6.16 4.04 9.33 5.697 3.17 1.65 7.14 3.15 11.92 4.48 4.78 1.33 9.49 2 14.14 2 7.1 0 13.13-1.86 18.09-5.58 4.97-3.72 7.45-8.97 7.45-15.76 0-5.66-2.86-10.67-8.59-15.03-5.73-4.37-12.69-8.21-20.88-11.52-8.19-3.32-16.27-6.97-24.25-10.97-7.98-4-14.81-9.64-20.48-16.91-5.66-7.27-8.5-15.88-8.5-25.82 0-14.45 5.59-26.52 16.76-36.23 11.17-9.71 25.13-14.57 41.87-14.57 20.15 0 36.83 5.51 50.05 16.52l2.42 2.15-13.88 25.93c-1.29-1.14-3.04-2.57-5.26-4.31-2.21-1.73-6.71-4.02-13.48-6.85-6.77-2.83-13.46-4.24-20.07-4.24-7.58 0-13.89 1.98-18.94 5.94s-7.56 9.01-7.56 15.15c0 5.66 2.85 10.55 8.53 14.67 5.69 4.12 12.59 7.76 20.7 10.91 8.11 3.15 16.19 6.71 24.25 10.66 8.05 3.96 14.94 9.64 20.66 17.03 5.72 7.4 8.575 16.3 8.575 26.73 0 14.44-5.24 26.6-15.71 36.48-10.48 9.87-24.58 14.8-42.3 14.8-21.82 0-40.65-6.71-56.48-20.12l-3.86-3.71zm131.95-127.338v-27.408h147.307v27.408h-57.715v148.15h-31.876v-148.15h-57.71zm157.092 59.165c0-25.194 8.693-46.427 26.08-63.692 17.387-17.266 38.94-25.9 64.657-25.9s47.27 8.615 64.657 25.84c17.39 17.226 26.08 38.477 26.08 63.75 0 25.92-8.69 47.735-26.08 65.442-17.38 17.71-38.93 26.563-64.65 26.563s-47.27-8.854-64.65-26.563c-17.38-17.706-26.08-39.52-26.08-65.44zm32.842 0c0 17.95 5.61 32.9 16.84 44.854 11.23 11.953 24.91 17.93 41.05 17.93 16.14 0 29.82-5.977 41.05-17.93 11.23-11.953 16.84-26.905 16.84-44.855 0-17.15-5.62-31.5-16.85-43.05-11.23-11.55-24.92-17.33-41.05-17.33-16.14 0-29.83 5.77-41.06 17.32s-16.85 25.9-16.85 43.04zm166.64 88.986V123.708h31.87v148.15h75.94v27.408H1594.4zM752.62 529.78V354.222h67.48c16.436 0 29.827 5.273 40.17 15.817 10.342 10.54 15.515 24.31 15.515 41.29s-5.173 30.83-15.516 41.53c-10.35 10.7-23.74 16.06-40.17 16.06h-35.6v60.85h-31.87zm31.88-88.26h29.885c9.274 0 16.514-2.718 21.717-8.15s7.805-12.78 7.805-22.036c0-9.096-2.61-16.32-7.81-21.673-5.208-5.35-12.28-8.03-21.23-8.03H784.5v59.89zm106.34-.726c0-25.193 8.694-46.426 26.08-63.69s38.94-25.9 64.658-25.9 47.27 8.614 64.658 25.84c17.387 17.226 26.08 38.477 26.08 63.75 0 25.92-8.693 47.735-26.08 65.442-17.387 17.71-38.94 26.563-64.657 26.563s-47.27-8.86-64.66-26.57c-17.39-17.71-26.08-39.52-26.08-65.44zm32.84 0c0 17.95 5.617 32.902 16.846 44.855 11.23 11.95 24.912 17.93 41.052 17.93s29.83-5.98 41.06-17.93c11.23-11.96 16.845-26.91 16.845-44.86 0-17.15-5.614-31.5-16.844-43.05-11.23-11.55-24.92-17.33-41.05-17.33-16.14 0-29.82 5.77-41.05 17.32s-16.84 25.9-16.84 43.04zm169.676 25.96v-112.53h31.875v112.53c0 11.51 3.5 20.525 10.51 27.045 7 6.52 16.44 9.78 28.32 9.78 11.87 0 21.35-3.26 28.44-9.78 7.08-6.52 10.63-15.62 10.63-27.29V354.22H1235v112.53c0 19.644-6.5 35.56-19.5 47.756-13 12.194-30.048 18.292-51.136 18.292-21.25 0-38.397-6.1-51.44-18.293-13.04-12.195-19.56-28.112-19.56-47.754zm166.09 63.026V354.222h31.876l66.516 101.423c2.02 2.98 4.26 6.723 6.72 11.23 2.458 4.508 4.373 8.33 5.744 11.47l2.178 4.467h.487c-1.136-11.188-1.703-20.243-1.703-27.167V354.222h31.877V529.78h-31.87l-66.62-101.182c-2.01-2.977-4.21-6.72-6.59-11.23-2.38-4.506-4.29-8.25-5.74-11.228l-2.3-4.71h-.48c1.12 11.19 1.73 20.246 1.81 27.168V529.78h-31.87zm172.79 0V354.222h59.89c27.365 0 49.12 7.75 65.26 23.243 16.14 15.496 24.21 36.928 24.21 64.295 0 27.368-8.07 48.882-24.21 64.536-16.14 15.657-37.895 23.484-65.26 23.484h-59.89zm31.876-27.408h26.24c18.135 0 32.403-5.23 42.802-15.696 10.398-10.463 15.6-25.436 15.6-44.916 0-19.156-5.242-33.968-15.72-44.433-10.48-10.463-24.707-15.697-42.683-15.697h-26.24v120.742z" fill="#FFF"/><path fill-rule="evenodd" clip-rule="evenodd" fill="#008ACF" d="M12.592 307.15c2.234-5.988 1.83-12.38 2.785-18.565 16.814-108.82 73.757-189.753 170.04-242.54C229.547 21.848 277.45 10.11 327.9 9.237 415.956 7.71 492.537 36.872 556.755 96.83c53.65 50.09 86.678 111.97 97.625 184.69 14.35 95.344-8.61 181.345-69.696 256.012-51.436 62.876-118.17 100.506-198.456 113.775-8.925 1.478-17.888 2.6-26.927 3.082-.57.03-1.13.52-1.69.79h-41.24c-9.28-1.07-18.62-1.81-27.86-3.24-75.35-11.63-139.21-45.21-190.91-101.27C55.11 504.6 28.53 450.44 17.4 388.7c-2.29-12.7-3.134-25.544-4.804-38.298V307.15zm440.29-11.19c24.062-9.356 38.25-22.266 49.346-44.38 15.438-30.774 15.502-62.314 3.66-93.974-10.886-29.097-31.873-47.883-61.847-56.11-22.67-6.225-45.71-6.876-68.59-1.4-53.63 12.832-92.84 43.34-114 95.104-10.86 26.58-14.36 54.588-14.22 83.103.02 4.085-1.16 5.4-5.01 4.58-.98-.204-1.99-.262-2.99-.368-12.34-1.322-24.48-3.74-36.52-6.655-3.23-.78-4.05-.028-3.92 3.218.24 5.856.23 11.738 0 17.595-.12 3.15.72 4.625 4.01 5.563 13.46 3.83 27.16 5.943 41.11 5.964 4.17.008 5.35 1.35 5.69 5.313 2.55 28.88 4.99 57.76 2.3 86.762-1.29 13.875-3.92 27.484-9.23 40.48-1.09 2.676-2.16 3.46-5.17 2.258-20.59-8.23-41.86-9.68-63.65-6.065-20.14 3.35-35.71 13.18-44.77 31.785-12.72 26.134.22 53.67 27.72 59.393 14.91 3.104 28.99.177 42.22-6.978 13.88-7.507 25.24-18.186 35.98-29.526 2.07-2.187 3.29-2.407 5.71-.626 5.39 3.978 11.14 7.457 16.55 11.398 50.32 36.66 107.2 49.696 168.19 43.835 44.23-4.25 77.86-27.11 98.96-66.76 13.82-25.97 17.94-54.18 16.34-83.22-2.02-36.77-18.26-65.54-49.69-85.33-11.45-7.21-23.894-11.95-38.13-14.98z"/><path fill-rule="evenodd" clip-rule="evenodd" fill="#FFF" d="M452.88 295.96c14.234 3.037 26.677 7.77 38.127 14.977 31.434 19.785 47.677 48.554 49.696 85.325 1.595 29.035-2.523 57.243-16.345 83.213-21.102 39.645-54.733 62.504-98.964 66.752-60.984 5.86-117.86-7.175-168.182-43.835-5.41-3.94-11.164-7.42-16.547-11.398-2.412-1.78-3.636-1.56-5.703.626-10.742 11.34-22.105 22.02-35.983 29.526-13.24 7.154-27.32 10.08-42.22 6.978-27.5-5.722-40.44-33.26-27.72-59.393 9.06-18.6 24.62-28.43 44.77-31.78 21.78-3.61 43.05-2.16 63.64 6.07 3.01 1.21 4.08.42 5.17-2.26 5.31-12.99 7.94-26.6 9.23-40.48 2.7-29 .26-57.88-2.29-86.76-.35-3.96-1.53-5.3-5.69-5.31-13.96-.02-27.65-2.13-41.11-5.96-3.3-.94-4.13-2.41-4.01-5.56.22-5.85.23-11.74-.01-17.59-.13-3.24.69-4 3.92-3.22 12.04 2.92 24.19 5.34 36.52 6.66 1 .11 2.01.17 2.99.37 3.85.82 5.03-.49 5.01-4.58-.14-28.51 3.36-56.52 14.22-83.1 21.15-51.76 60.36-82.27 114-95.1 22.88-5.48 45.92-4.82 68.6 1.4 29.97 8.23 50.96 27.01 61.84 56.11 11.84 31.66 11.78 63.2-3.66 93.97-11.09 22.12-25.28 35.03-49.34 44.39zM397.1 506.783c9.307-.037 15.99-.336 22.62-1.45 36.652-6.17 63.285-25.175 76.823-60.542 6.923-18.09 8.613-37.1 8.337-56.3-.645-44.67-26.323-74.58-69.396-81.19-4.042-.61-9.758 1.31-11.727-2-1.928-3.24-.42-8.46-.65-12.8-.138-2.53.667-3.44 3.282-3.68 9.71-.87 18.45-4.02 26.01-10.61 12.75-11.12 22.53-24.17 28.11-40.26 8.49-24.51 6.19-48.81-1.61-72.91-10.76-33.24-41.4-50.93-71.18-48.03-22.98 2.24-42.48 10.5-55.6 30.44-7.86 11.94-12.06 25.33-14.6 39.26-5.88 32.17-4.49 64.74-5.28 97.19-.07 2.75 1.02 3.34 3.51 3.39 11.38.22 22.75.61 34.13.97 4.34.14 9.91-1.23 12.69.95 3.24 2.55.53 8.44 1.2 12.82.67 4.39-1.41 5.19-5.29 5.25-14.4.2-28.79.82-43.18 1.01-3.43.05-4.64 1.03-4.84 4.49-.68 11.56-2.81 22.91-5.74 34.1-10.47 39.95-30.11 74.95-57.48 105.69-2.67 3-2.65 4.43.74 6.69 7.94 5.29 15.85 10.64 24.17 15.32 33.43 18.76 68.75 31.226 104.91 32.274zm-230.024 12.603c8.02-.054 14.837-2.13 21.69-6.767 12.265-8.3 21.697-19.29 29.642-31.66 1.39-2.16 1.58-3.47-.992-5.15-14.11-9.23-29.38-14.41-46.347-13.71-10.95.45-20.11 4.94-26.84 13.65-6.67 8.62-8.48 18.33-3.55 28.26 5.51 11.1 15.73 14.77 26.39 15.36z"/><path fill="#008ACF" d="M504.88 388.49c-.645-44.672-26.323-74.583-69.396-81.19-4.042-.617-9.758 1.307-11.727-2.005-1.928-3.245-.42-8.464-.65-12.807-.138-2.533.667-3.446 3.282-3.684 9.71-.872 18.45-4.027 26.01-10.617 12.75-11.125 22.53-24.173 28.11-40.258 8.49-24.52 6.19-48.82-1.61-72.92-10.76-33.25-41.4-50.93-71.18-48.03-22.98 2.24-42.48 10.5-55.6 30.44-7.86 11.93-12.06 25.32-14.6 39.25-5.88 32.16-4.49 64.73-5.28 97.18-.07 2.75 1.02 3.33 3.51 3.38 11.38.22 22.75.6 34.13.96 4.34.13 9.91-1.23 12.69.95 3.24 2.54.53 8.44 1.2 12.81.67 4.39-1.41 5.19-5.29 5.25-14.4.19-28.79.81-43.18 1-3.43.04-4.64 1.03-4.84 4.48-.68 11.56-2.81 22.91-5.74 34.1-10.47 39.95-30.11 74.94-57.48 105.69-2.67 3-2.65 4.43.74 6.69 7.94 5.29 15.85 10.64 24.17 15.31 33.43 18.76 68.75 31.22 104.91 32.27 9.3-.04 15.99-.33 22.62-1.45 36.65-6.17 63.28-25.18 76.82-60.55 6.92-18.09 8.61-37.107 8.33-56.3z"/><path fill="#0B87C9" d="M217.415 476.816c-14.11-9.23-29.38-14.41-46.347-13.704-10.944.455-20.106 4.944-26.837 13.654-6.66 8.624-8.47 18.333-3.55 28.258 5.52 11.104 15.73 14.77 26.4 15.36 8.02-.053 14.84-2.128 21.69-6.766 12.27-8.292 21.7-19.28 29.64-31.654 1.39-2.16 1.58-3.47-.99-5.148z"/></svg>