<svg xmlns="http://www.w3.org/2000/svg" width="1705.415" height="662.967" viewBox="0 0 1705.415 662.967"><path fill="#214099" d="M748.846 123.024h62.81c31.65 0 54.154 16.32 54.154 45.254 0 16.32-7.913 30.416-21.266 37.587v.494c19.288 5.68 28.438 23.49 28.438 41.29 0 35.11-28.19 50.94-60.584 50.94h-63.55V123.02zm62.81 71.713c13.847 0 21.76-9.892 21.76-22.503s-7.418-21.76-22.255-21.76h-30.41v44.263h30.91zm3.214 76.41c16.32 0 25.47-10.633 25.47-25.47 0-14.59-9.396-25.222-25.47-25.222h-34.125v50.693h34.125zm78.387-148.122h56.628c19.04 0 27.695 1.484 35.36 4.946 17.56 7.92 28.686 24.73 28.686 47.98 0 21.02-11.12 40.56-29.67 47.98v.5s2.48 2.48 5.94 8.66l36.11 65.53H990.7l-34.868-65.53h-30.67v65.53h-31.9V123.03zm60.584 82.346c17.07 0 27.7-10.13 27.7-27.69 0-16.81-7.17-27.2-32.14-27.2h-24.24v54.9h28.69zm90.26-82.34h31.9V298.6h-31.9zm75.67 130.57s19.04 18.55 43.77 18.55c13.36 0 25.47-6.92 25.47-21.26 0-31.4-82.84-25.96-82.84-79.87 0-29.18 25.23-50.94 58.86-50.94 34.62 0 52.43 18.79 52.43 18.79l-13.85 25.97s-16.81-15.33-38.82-15.33c-14.84 0-26.46 8.66-26.46 21.02 0 31.16 82.6 23.49 82.6 79.63 0 27.94-21.27 51.44-57.86 51.44-39.07 0-60.58-23.99-60.58-23.99l17.31-23.99zm172.35-103.11h-57.62v-27.45h147.14v27.45h-57.61V298.6h-31.9m190.16-178.54c51.68 0 90.76 39.32 90.76 89.518 0 51.682-39.07 91.99-90.76 91.99-51.68 0-90.75-40.308-90.75-91.99 0-50.2 39.07-89.517 90.75-89.517m0 152.33c32.15 0 57.86-26.7 57.86-62.81 0-34.62-25.71-60.33-57.86-60.33s-57.86 25.72-57.86 60.34c0 36.11 25.72 62.81 57.86 62.81m108.81-149.36h31.9v148.12h75.92v27.44H1591.1m-842.22 54.94h67.75c32.89 0 55.89 23 55.89 57.13s-22.996 57.87-55.884 57.87h-35.86v60.59h-31.9V353.54zm61.82 87.29c18.55 0 29.43-11.87 29.43-30.16 0-18.05-10.88-29.67-28.933-29.67h-30.41v59.85h29.92zm167.16-90.25c51.686 0 90.757 39.32 90.757 89.52 0 51.68-39.07 91.99-90.75 91.99s-90.75-40.31-90.75-91.99c0-50.2 39.07-89.52 90.756-89.52m0 152.32c32.145 0 57.862-26.71 57.862-62.81 0-34.62-25.716-60.34-57.86-60.34S920 405.47 920 440.09c0 36.108 25.716 62.81 57.862 62.81m111.75-149.36h31.9v112.52c0 23.497 15.332 36.85 38.824 36.85s39.07-13.352 39.07-37.09V353.54h31.9v112.514c0 39.318-28.44 66.025-70.725 66.025-42.53 0-70.97-26.71-70.97-66.03V353.54zm166.17 0h31.9l66.52 101.39c6.674 10.14 14.59 27.2 14.59 27.2h.49s-1.73-16.81-1.73-27.2V353.54h31.657v175.57h-31.66l-66.52-101.138c-6.68-10.14-14.59-27.203-14.59-27.203h-.5s1.73 16.81 1.73 27.2v101.14h-31.9V353.54zm172.85 0h59.84c54.153 0 89.515 32.15 89.515 87.54s-35.36 88.036-89.52 88.036h-59.84V353.54zm58.11 148.128c35.61 0 58.36-21.02 58.36-60.585 0-39.07-23.25-60.09-58.36-60.09h-26.21v120.68h26.21z"/><path fill-rule="evenodd" clip-rule="evenodd" fill="#008ACF" d="M8.77 306.48c2.236-5.987 1.83-12.38 2.786-18.565 16.814-108.82 73.757-189.752 170.04-242.54C225.726 21.18 273.628 9.44 324.08 8.57c88.054-1.526 164.635 27.636 228.853 87.594 53.65 50.09 86.678 111.97 97.624 184.69 14.35 95.344-8.61 181.345-69.694 256.012-51.436 62.876-118.17 100.506-198.456 113.775-8.925 1.48-17.89 2.6-26.928 3.08-.58.04-1.13.53-1.7.8h-41.24c-9.29-1.06-18.63-1.81-27.86-3.23-75.35-11.63-139.22-45.21-190.91-101.26-42.5-46.08-69.08-100.23-80.2-161.98-2.29-12.7-3.14-25.54-4.81-38.3v-43.26zm440.29-11.19c24.062-9.355 38.25-22.265 49.347-44.38 15.438-30.774 15.502-62.314 3.66-93.973-10.887-29.096-31.873-47.883-61.847-56.11-22.67-6.225-45.71-6.876-68.598-1.4-53.636 12.832-92.846 43.34-113.998 95.104-10.86 26.58-14.363 54.59-14.22 83.11.017 4.09-1.164 5.4-5.017 4.58-.98-.2-1.992-.26-2.99-.37-12.338-1.32-24.484-3.74-36.523-6.65-3.232-.78-4.055-.03-3.922 3.22.238 5.86.227 11.74.002 17.6-.12 3.15.717 4.63 4.01 5.57 13.46 3.83 27.152 5.95 41.105 5.97 4.16.01 5.34 1.35 5.69 5.32 2.55 28.88 4.99 57.76 2.29 86.76-1.29 13.88-3.92 27.49-9.24 40.48-1.1 2.68-2.17 3.46-5.18 2.26-20.6-8.23-41.86-9.68-63.65-6.06-20.15 3.35-35.71 13.18-44.77 31.79-12.72 26.134.21 53.67 27.71 59.39 14.9 3.106 28.98.178 42.22-6.98 13.87-7.503 25.24-18.182 35.98-29.522 2.07-2.183 3.29-2.404 5.7-.624 5.38 3.98 11.13 7.455 16.54 11.4 50.32 36.66 107.2 49.69 168.18 43.83 44.23-4.25 77.86-27.11 98.96-66.75 13.82-25.97 17.94-54.18 16.34-83.21-2.02-36.77-18.27-65.54-49.7-85.33-11.45-7.21-23.898-11.94-38.13-14.97"/><path fill-rule="evenodd" clip-rule="evenodd" fill="#008ACF" d="M393.28 506.114c-36.156-1.05-71.482-13.512-104.91-32.273-8.322-4.67-16.225-10.02-24.168-15.31-3.39-2.26-3.413-3.69-.743-6.69 27.37-30.74 47.01-65.73 57.48-105.69 2.93-11.19 5.06-22.54 5.74-34.1.2-3.45 1.41-4.44 4.83-4.48 14.39-.19 28.78-.81 43.17-1 3.87-.05 5.95-.86 5.28-5.25-.67-4.37 2.04-10.27-1.21-12.81-2.78-2.17-8.35-.81-12.69-.95-11.38-.36-22.76-.74-34.14-.96-2.49-.05-3.58-.63-3.52-3.38.79-32.45-.6-65.01 5.28-97.18 2.54-13.93 6.74-27.31 14.6-39.25 13.12-19.94 32.62-28.2 55.59-30.44 29.77-2.9 60.41 14.79 71.17 48.03 7.793 24.1 10.1 48.4 1.602 72.92-5.574 16.09-15.36 29.14-28.11 40.26-7.55 6.59-16.294 9.75-26.01 10.62-2.616.24-3.42 1.15-3.283 3.68.23 4.35-1.28 9.57.65 12.81 1.97 3.31 7.685 1.39 11.727 2.01 43.075 6.61 68.75 36.52 69.4 81.19.274 19.2-1.416 38.21-8.34 56.3-13.537 35.37-40.17 54.37-76.82 60.55-6.63 1.11-13.316 1.41-22.62 1.448"/><path fill-rule="evenodd" clip-rule="evenodd" fill="#0B87C9" d="M163.254 518.717c-10.664-.59-20.882-4.258-26.395-15.36-4.93-9.926-3.12-19.635 3.55-28.26 6.73-8.708 15.89-13.198 26.83-13.653 16.96-.708 32.23 4.474 46.34 13.704 2.57 1.678 2.38 2.988.99 5.147-7.95 12.373-17.38 23.363-29.64 31.655-6.86 4.64-13.67 6.713-21.69 6.767"/></svg>