<?xml version="1.0" standalone="no"?>
<!DOCTYPE svg PUBLIC "-//W3C//DTD SVG 1.1//EN" "http://www.w3.org/Graphics/SVG/1.1/DTD/svg11.dtd" >
<svg xmlns="http://www.w3.org/2000/svg" xmlns:xlink="http://www.w3.org/1999/xlink" version="1.1">
<metadata></metadata>
<defs>
<font id="romanitalic" horiz-adv-x="1024" >
<font-face units-per-em="2048" ascent="1638" descent="-410" />
<missing-glyph horiz-adv-x="492" />
<glyph horiz-adv-x="0" />
<glyph unicode="&#xd;" horiz-adv-x="0" />
<glyph unicode=" "  horiz-adv-x="492" />
<glyph unicode="&#x09;" horiz-adv-x="492" />
<glyph unicode="&#xa0;" horiz-adv-x="492" />
<glyph unicode="!" horiz-adv-x="682" d="M145 94q0 50 33.5 84.5t83.5 34.5q49 0 83 -35t34 -86q0 -48 -33.5 -83.5t-81.5 -35.5t-83.5 36.5t-35.5 84.5zM295 354l129 844q29 184 164 184q40 0 66 -26t26 -66q0 -27 -23 -84l-325 -852h-37z" />
<glyph unicode="&#x22;" horiz-adv-x="860" d="M322 793l69 464q9 63 33.5 94t67.5 31q37 0 61.5 -23t24.5 -59q0 -12 -11 -53l-188 -454h-57zM635 793l82 448q12 63 23 90.5t30 39t51 11.5q36 0 60 -25t24 -63q0 -33 -14 -61l-195 -440h-61z" />
<glyph unicode="#" d="M14 438l29 109h233l113 280h-219l31 109h235l172 416h113l-170 -416h270l170 416h117l-170 -416h197l-31 -109h-211l-119 -280h207l-31 -109h-205l-192 -438h-117l180 438h-270l-180 -438h-119l182 438h-215zM393 547h269l114 280h-270z" />
<glyph unicode="$" d="M51 150q0 26 9.5 68t28 99t22.5 72h36q18 -145 59.5 -212t135.5 -101l158 594q-55 45 -101 83t-84 80t-60 92.5t-22 112.5q0 142 104.5 230t348.5 94l35 135h76l-35 -135q129 -46 186.5 -77t57.5 -54q0 -22 -10 -65.5t-22.5 -82t-25.5 -82.5h-39q-10 112 -46 170.5 t-124 106.5l-127 -469q155 -112 233.5 -201t78.5 -227q0 -145 -74.5 -232.5t-194 -123t-262.5 -35.5l-51 -189h-74l51 197q-268 83 -268 152zM397 1090q0 -35 5.5 -57t23 -47t43 -49.5t84.5 -74.5l115 432q-11 1 -20.5 1.5t-22.5 0.5q-63 0 -116 -27t-82.5 -74t-29.5 -105z M412 57q28 -4 55 -4q122 0 207.5 78.5t85.5 190.5q0 56 -15.5 97.5t-56.5 84.5t-127 110z" />
<glyph unicode="%" horiz-adv-x="1401" d="M137 954q0 108 53 207t140 158t184 59q45 0 78.5 -16t79.5 -59q99 -21 129 -21q67 0 152 37.5t188 110.5h84l-873 -1512h-112l774 1348q-15 -6 -61 -27t-79 -30t-59 -9q-44 0 -104 14q14 -85 14 -114q0 -82 -44.5 -187.5t-120 -178t-163.5 -72.5q-111 0 -185.5 83.5 t-74.5 208.5zM301 874q0 -59 30 -95t81 -36q58 0 113.5 55.5t89.5 145.5t34 186q0 55 -26 111q-73 43 -86 51q-72 0 -125.5 -72t-82 -172.5t-28.5 -173.5zM748 264q0 109 51 207t135.5 157.5t179.5 59.5q101 0 155 -67t54 -189q0 -124 -43 -229.5t-118.5 -167.5t-162.5 -62 q-110 0 -180.5 81.5t-70.5 209.5zM911 211q0 -76 26.5 -116t76.5 -40q58 0 113.5 54.5t89.5 143.5t34 181q0 80 -33.5 126t-87.5 46q-44 0 -77.5 -31.5t-77.5 -115.5q-35 -65 -49.5 -119.5t-14.5 -128.5z" />
<glyph unicode="&#x26;" horiz-adv-x="1481" d="M74 311q0 95 47.5 171.5t121.5 132.5t148 94t193 92q-17 107 -17 164q0 123 39.5 217.5t111.5 145t167 50.5q65 0 114 -26.5t76 -74.5t27 -106q0 -64 -37 -123.5t-111 -115t-190 -113.5q24 -93 48 -162t55.5 -142.5t74.5 -158.5q152 171 152 265q0 33 -19 44t-88 17v51 h391v-51q-67 -4 -111 -37t-98 -119q-95 -158 -172 -254q71 -94 126 -135t114 -41q55 0 117 35q17 10 28 10q19 0 19 -22q0 -37 -44.5 -70.5t-105.5 -54.5t-104 -21q-52 0 -94.5 14.5t-90.5 50.5t-106 97q-115 -82 -205.5 -121t-206.5 -39q-103 0 -187.5 44.5t-133.5 122 t-49 169.5zM293 358q0 -69 36 -129t97 -95.5t133 -35.5q63 0 120.5 24.5t129.5 80.5q-43 69 -72 127t-52 115.5t-47.5 128.5t-47.5 139q-144 -90 -220.5 -165t-76.5 -190zM745 1065q0 -62 15 -150q194 93 194 265q0 57 -22 86.5t-64 29.5q-58 0 -90.5 -61.5t-32.5 -169.5z " />
<glyph unicode="'" horiz-adv-x="438" d="M264 793l68 415q13 79 25 113.5t32.5 47.5t56.5 13q37 0 61.5 -26t24.5 -64q0 -30 -12 -57l-201 -442h-55z" />
<glyph unicode="(" horiz-adv-x="682" d="M137 418q0 146 37 277t105 250.5t159.5 227t200.5 209.5l43 -43q-161 -180 -245 -352.5t-111 -344t-27 -398.5q0 -369 127 -627l-47 -18q-82 125 -135 257.5t-80 274t-27 287.5z" />
<glyph unicode=")" horiz-adv-x="682" d="M16 -358q160 179 244 353.5t112.5 350t28.5 389.5q0 380 -129 629l50 18q237 -372 237 -817q0 -192 -63.5 -361t-173.5 -315.5t-263 -289.5z" />
<glyph unicode="*" d="M287 1167q0 28 22 50t49 22q30 0 62 -22.5t61.5 -54.5t73 -76t80.5 -70q27 85 27 137q0 13 -1.5 36t-3.5 45.5t-2 35.5q0 46 24 80t58 34q35 0 56.5 -22.5t21.5 -58.5q0 -22 -13.5 -52.5t-42.5 -81.5t-46 -87t-29 -78q72 3 177 34t122 31q38 0 62 -21t24 -53 q0 -34 -25 -57t-63 -23q-41 0 -121 20.5t-127 20.5q-11 0 -22 -0.5t-25 -1.5q17 -44 48 -94t57 -88.5t40.5 -65t14.5 -51.5q0 -33 -21 -54t-53 -21q-86 0 -92 155q-3 68 -11 107t-30 94q-46 -37 -72.5 -66.5t-66.5 -87.5q-35 -51 -63 -73.5t-60 -22.5q-27 0 -48.5 22.5 t-21.5 51.5q0 42 34.5 65.5t128.5 67.5t138 82q-47 32 -85 49t-103 35q-133 38 -133 108z" />
<glyph unicode="+" horiz-adv-x="1382" d="M266 633l27 98h420l110 414h105l-111 -414h420l-27 -98h-417l-111 -412h-107l111 412h-420z" />
<glyph unicode="," horiz-adv-x="512" d="M-27 -233q90 60 127 100.5t37 79.5q0 19 -12.5 33.5t-38 37t-38.5 42t-13 44.5q0 45 32 77t78 32q56 0 92.5 -42.5t36.5 -111.5q0 -108 -79.5 -194.5t-194.5 -140.5z" />
<glyph unicode="-" horiz-adv-x="682" d="M76 403l33 121h503l-32 -121h-504z" />
<glyph unicode="." horiz-adv-x="512" d="M41 94q0 50 33.5 84.5t83.5 34.5q49 0 82.5 -35.5t33.5 -85.5q0 -48 -34 -83.5t-80 -35.5q-50 0 -84.5 35.5t-34.5 85.5z" />
<glyph unicode="/" horiz-adv-x="983" d="M39 -43l758 1395h147l-758 -1395h-147z" />
<glyph unicode="0" d="M84 412q0 162 50.5 335.5t139.5 317t202 228.5t235 85q76 0 139 -34.5t109 -101.5t70 -155t24 -200q0 -172 -52.5 -338t-140.5 -294t-202.5 -205t-231.5 -77q-71 0 -133 37.5t-107 100t-72 142t-30 159.5zM268 301q4 -115 50 -180.5t122 -65.5q113 0 211.5 153.5 t155.5 380.5t57 425q0 130 -48 206t-130 76q-90 0 -167.5 -95.5t-133.5 -247.5t-86.5 -328t-30.5 -324z" />
<glyph unicode="1" d="M115 0l14 55q102 0 143 13.5t60.5 51t48.5 146.5l231 862q13 54 13 80q0 37 -27 47q-23 9 -178 9l12 43q96 16 143.5 24.5t103 20.5t167.5 39l-299 -1125q-23 -90 -25 -100.5t-2 -28.5q0 -82 84 -82h107l-15 -55h-581z" />
<glyph unicode="2" d="M59 49q133 133 188 191.5t197 218.5q143 153 232.5 276.5t89.5 235.5q0 67 -34 122.5t-92.5 87t-131.5 31.5q-98 0 -161 -44.5t-118 -151.5l-53 18q57 182 164 263t254 81q101 0 182.5 -44t127.5 -124t46 -176q0 -193 -190 -377l-244 -235l-184 -193l-51 -51h317 q88 0 127.5 6.5t68 33t62.5 93.5l45 -24l-110 -287h-730z" />
<glyph unicode="3" d="M41 106q0 39 29 67t67 28q39 0 69.5 -15t81 -47.5t76.5 -44.5t60 -12q67 0 122.5 39t87.5 109t32 151q0 342 -381 342l-6 49q122 21 227 53t183.5 99t78.5 176q0 71 -51 119.5t-127 48.5q-121 0 -232 -138l-45 31q132 217 338 217q83 0 152.5 -34.5t109 -95t39.5 -136.5 q0 -81 -42 -138t-103 -92t-152 -71q195 -92 195 -342q0 -130 -78.5 -244.5t-211 -183t-279.5 -68.5q-105 0 -172.5 37t-67.5 96z" />
<glyph unicode="4" d="M35 346l41 154q204 214 410.5 426.5t412.5 425.5h100l-229 -852h199l-41 -154h-199l-92 -346h-166l92 346h-528zM182 500h422l160 590q-50 -48 -197 -196.5t-242.5 -246.5t-142.5 -147z" />
<glyph unicode="5" d="M35 100q0 37 24.5 62.5t59.5 25.5t64.5 -14t67.5 -39.5t66.5 -39t59.5 -13.5q66 0 124.5 30t105 84.5t72.5 123.5t26 145q0 104 -49 186.5t-135 132t-187 58.5q-86 8 -86 37q0 18 20 65l176 408h537l-47 -178h-469l-70 -154q142 -18 248 -81.5t160.5 -164t54.5 -231.5 q0 -120 -46 -224t-128.5 -181.5t-196 -121t-239.5 -43.5q-92 0 -152.5 36t-60.5 91z" />
<glyph unicode="6" d="M102 442q0 167 73.5 321t205 281.5t300 213.5t351.5 120l12 -57q-130 -34 -233 -85t-176 -115t-131.5 -149t-110.5 -192q85 65 134 88t108 23q100 0 179.5 -48t124 -135.5t44.5 -197.5q0 -139 -67 -264.5t-178.5 -199t-239.5 -73.5q-176 0 -286 131.5t-110 337.5z M287 338q0 -131 55.5 -207t151.5 -76q78 0 144.5 60.5t106 163t39.5 217.5q0 90 -25 153t-72 96t-116 33q-86 0 -150.5 -69t-99 -171.5t-34.5 -199.5z" />
<glyph unicode="7" d="M188 1049l164 303h826l-781 -1379h-159l702 1201h-381q-92 0 -145.5 -11.5t-90.5 -41.5t-87 -97z" />
<glyph unicode="8" d="M90 334q0 129 90.5 225t284.5 176q-71 78 -107.5 130t-51.5 99.5t-15 110.5q0 135 103 219t268 84q103 0 187.5 -38t132.5 -105t48 -152q0 -124 -85 -195t-226 -122q111 -111 173 -210.5t62 -223.5q0 -96 -60 -178.5t-162.5 -131.5t-219.5 -49q-120 0 -216.5 46.5 t-151 129.5t-54.5 185zM244 332q0 -119 78 -198t198 -79q75 0 137 32t96.5 88.5t34.5 125.5q0 75 -39 142.5t-94.5 121.5t-130.5 119q-80 -38 -142 -86t-100 -115t-38 -151zM455 1104q0 -46 16.5 -83t59.5 -82.5t131 -121.5q118 58 166.5 115.5t48.5 140.5q0 97 -62 160 t-160 63q-57 0 -103 -24t-71.5 -68t-25.5 -100z" />
<glyph unicode="9" d="M96 31q256 65 400 191.5t252 348.5q-51 -40 -93 -65.5t-77.5 -35t-73.5 -9.5q-100 0 -178.5 48t-123 134t-44.5 193q0 145 65.5 269t177 198.5t242.5 74.5q115 0 205 -59.5t140 -166.5t50 -243q0 -170 -73 -324.5t-201 -278.5t-297.5 -210t-357.5 -123zM354 854 q0 -130 57.5 -205.5t157.5 -75.5q59 0 107.5 25t116.5 94q36 114 48.5 178t12.5 142q0 134 -55 209t-154 75q-78 0 -145 -59.5t-106.5 -160.5t-39.5 -222z" />
<glyph unicode=":" horiz-adv-x="682" d="M135 90q0 50 33.5 84.5t83.5 34.5t85.5 -34.5t35.5 -84.5t-35.5 -83.5t-83.5 -33.5q-49 0 -84 34t-35 83zM305 815q0 48 33.5 81.5t81.5 33.5t82.5 -33.5t34.5 -83.5q0 -47 -34 -81t-81 -34q-46 0 -81.5 34.5t-35.5 82.5z" />
<glyph unicode=";" horiz-adv-x="682" d="M57 -233q91 62 127.5 102t36.5 78q0 19 -12.5 33.5t-38 37t-38.5 42t-13 44.5q0 45 32 77t78 32q56 0 92.5 -42.5t36.5 -111.5q0 -109 -80 -195t-194 -140zM319 811q0 50 33.5 84.5t81.5 34.5q50 0 84.5 -35.5t34.5 -85.5q0 -51 -34 -85t-83 -34q-50 0 -83.5 35.5 t-33.5 85.5z" />
<glyph unicode="&#x3c;" horiz-adv-x="1382" d="M221 602v100l901 400v-144l-719 -307l719 -307v-143z" />
<glyph unicode="=" horiz-adv-x="1382" d="M229 498l27 98h944l-26 -98h-945zM303 770l25 98h946l-27 -98h-944z" />
<glyph unicode="&#x3e;" horiz-adv-x="1382" d="M260 201v143l719 307l-719 307v144l901 -400v-100z" />
<glyph unicode="?" d="M315 94q0 50 33.5 84.5t83.5 34.5q49 0 83 -35t34 -86q0 -48 -33.5 -83.5t-81.5 -35.5t-83.5 36.5t-35.5 84.5zM332 1044q0 92 67.5 170t168 123t188.5 45q128 0 200 -59t72 -166q0 -116 -57.5 -203.5t-183.5 -211t-193 -208.5t-96 -206h-41l28 104q26 107 147 282 t166.5 254.5t45.5 213.5q0 61 -37 100t-94 39q-70 0 -139.5 -42t-69.5 -110q0 -16 11 -52.5t11 -59.5q0 -45 -34 -79t-80 -34q-35 0 -57.5 28t-22.5 72z" />
<glyph unicode="@" horiz-adv-x="1542" d="M82 662q0 196 93 360t255.5 260t353.5 96q165 0 317.5 -66t246.5 -192t94 -293q0 -266 -187 -426q-65 -54 -137.5 -88t-124.5 -34q-74 0 -115 39t-61 128q-51 -71 -105 -113t-126 -42q-71 0 -128 36.5t-89.5 100t-32.5 139.5q0 84 34.5 164.5t94.5 145t136.5 101 t156.5 36.5q49 0 82 -17t54.5 -51.5t33.5 -87.5l37 139h165l-143 -534q-6 -30 -6 -55v-2q0 -28 15.5 -47t39.5 -19q54 0 127.5 58.5t120.5 142.5q35 59 56.5 136.5t21.5 139.5q-1 133 -76 239t-207 167t-293 61q-172 0 -312.5 -80.5t-221 -222t-80.5 -313.5 q0 -174 82.5 -311t231.5 -213t339 -76q102 0 195 35t169 97.5t138 151.5h98q-50 -90 -90 -137t-112 -100q-94 -71 -195.5 -106.5t-208.5 -35.5q-214 0 -381.5 87.5t-261.5 246t-94 355.5zM483 520q0 -75 38.5 -128.5t92.5 -53.5q48 0 95.5 38.5t85.5 102t63.5 151.5 t28.5 171q0 67 -25 116.5t-86 49.5q-63 0 -117 -46t-93 -116.5t-61 -147.5t-22 -137z" />
<glyph unicode="A" horiz-adv-x="1251" d="M-113 0l17 59q37 0 61.5 10.5t49.5 39t65 88.5l794 1179h35l78 -1110q4 -55 9 -86t19 -59.5t41.5 -45t76.5 -16.5l-15 -59h-497l16 59q78 0 114.5 22t36.5 95q0 20 -7.5 128.5t-12.5 176.5h-383l-143 -215q-68 -100 -68 -149q0 -36 31.5 -47t79.5 -11l-15 -59h-383z M444 569h318l-31 426z" />
<glyph unicode="B" horiz-adv-x="1251" d="M29 0l14 55q83 0 115.5 51t60.5 158q27 102 91.5 346t109.5 418.5t45 188.5q0 79 -82 79h-55l14 56h387q107 0 188 -9t154.5 -40t119.5 -96t46 -169q0 -137 -84.5 -212t-234.5 -109q114 -54 173.5 -127.5t59.5 -190.5q0 -143 -100 -232.5t-269 -128t-379 -38.5h-374z M420 162q0 -41 30.5 -59.5t98.5 -18.5q87 0 156.5 23.5t117.5 68t72.5 106t24.5 142.5q0 126 -69.5 186t-217.5 60q-23 0 -88 -6l-109 -404q-16 -69 -16 -98zM569 760q74 -4 82 -4q367 0 367 297q0 100 -49 155.5t-140 55.5q-69 0 -102 -11q-19 -6 -28.5 -27t-26.5 -89z" />
<glyph unicode="C" horiz-adv-x="1366" d="M117 541q0 163 65.5 316.5t180 271t261.5 183.5t308 66q58 0 91.5 -6t123 -22.5t125.5 -16.5q19 0 29.5 7.5t27.5 37.5h43l-67 -424h-48q-23 342 -331 342q-152 0 -285.5 -109.5t-213 -293.5t-79.5 -397q0 -113 41.5 -207t124 -149.5t197.5 -55.5q65 0 120.5 13t110.5 41 t110.5 73t114.5 108l45 -40q-117 -140 -247 -223t-289 -83q-160 0 -288.5 73.5t-199.5 203.5t-71 291z" />
<glyph unicode="D" horiz-adv-x="1479" d="M27 0l14 55q83 0 115.5 51t60.5 158q16 57 39 142t82 305t93 350.5t34 148.5q0 86 -84 86h-53l14 56h475q147 0 265 -43.5t196 -120t118 -179t40 -221.5q0 -170 -60.5 -312t-183 -250t-303 -167t-408.5 -59h-454zM414 156q0 -39 29 -53.5t108 -14.5q208 0 357 106 t222.5 276.5t73.5 363.5q0 211 -96 322.5t-279 111.5q-75 0 -108 -15q-21 -7 -32.5 -33.5t-20.5 -69t-17 -81.5q-26 -98 -89.5 -337.5t-105.5 -401.5t-42 -174z" />
<glyph unicode="E" horiz-adv-x="1251" d="M27 0l14 55q83 0 115 51t61 158q16 57 45 165t82.5 308t87 328.5t33.5 146.5q0 86 -84 86h-53l14 54h963l-64 -318h-45l2 74q0 78 -67.5 111.5t-227.5 33.5h-205l-131 -491h123q91 0 137.5 13.5t77 51t66.5 121.5h47l-131 -487h-47q10 47 10 90q0 74 -42 98.5t-169 24.5 h-94l-107 -395q-22 -88 -22 -117q0 -25 18 -38.5t61.5 -19.5t120.5 -6q99 0 174.5 13t133 41.5t110.5 77t115 128.5l37 -18l-131 -340h-1028z" />
<glyph unicode="F" horiz-adv-x="1251" d="M27 0l14 55q83 0 115 51t61 158q16 57 45 165t82.5 308t87 328.5t33.5 146.5q0 86 -84 86h-53l14 54h1004l-64 -318h-45v64q0 71 -45 104.5t-104.5 42t-143.5 8.5h-246l-131 -491h164q90 0 136.5 13.5t77 50.5t67.5 122h45l-131 -487h-45l4 30t4 32.5t2 27.5 q0 74 -42 98.5t-169 24.5h-135q-15 -55 -44.5 -163t-61 -233t-31.5 -143q0 -80 81 -80h78l-16 -55h-524z" />
<glyph unicode="G" horiz-adv-x="1479" d="M115 557q0 159 65 306.5t180 265t260 183.5t302 66q141 0 254 -35q86 -24 114 -24q35 0 60.5 11.5t58.5 43.5h39l-96 -416h-54q-11 107 -57.5 182.5t-128 115.5t-188.5 40q-114 0 -220.5 -66t-186 -180.5t-125.5 -265.5t-46 -313q0 -122 48 -216.5t134 -147t197 -52.5 q95 0 145 17t80 67t56 150q4 16 22.5 78.5t29.5 103.5t11 68q0 43 -33.5 61t-115.5 18h-25l14 58h564l-17 -58h-8q-107 0 -137 -38q-17 -25 -25.5 -54.5t-19.5 -81.5l-97 -360q-148 -61 -252 -86t-208 -25q-175 0 -310.5 72.5t-209.5 205.5t-74 306z" />
<glyph unicode="H" horiz-adv-x="1479" d="M27 0l14 55q60 0 93.5 28t48 65.5t34.5 115.5q16 57 44.5 163.5t80.5 299.5t87.5 331t35.5 156q0 82 -84 82h-53l14 56h502l-15 -56q-58 0 -91.5 -28.5t-47.5 -65t-37 -115.5l-86 -323h508q13 45 34.5 123t51 195t29.5 135q0 79 -84 79h-57l16 56h502l-15 -56 q-59 0 -92 -27.5t-47 -63.5t-37 -118l-219 -823q-3 -14 -11 -42.5t-12 -48t-4 -38.5q0 -80 84 -80h54l-17 -55h-501l14 55q85 0 117.5 52.5t58.5 156.5l109 402h-508q-15 -54 -40.5 -148.5t-60 -229.5t-34.5 -155q0 -78 83 -78h56l-15 -55h-503z" />
<glyph unicode="I" horiz-adv-x="682" d="M-8 0l14 55q84 0 117 51t59 158q16 57 45 165t82.5 308t87 328.5t33.5 146.5q0 44 -19.5 64t-64.5 20h-55l14 56h502l-14 -56q-82 0 -114 -49.5t-63 -159.5q-27 -102 -70 -263t-109 -417.5t-66 -269.5q0 -82 84 -82h53l-14 -55h-502z" />
<glyph unicode="J" horiz-adv-x="909" d="M-88 166q0 46 34.5 75t88.5 29q68 0 95.5 -28.5t45 -86t30 -79t54.5 -21.5q56 0 87 41.5t48 109t27 109.5q25 96 71 273.5t101 396t55 229.5q0 55 -33 68.5t-98 13.5l14 56h502l-14 -56q-59 0 -91.5 -27t-50 -70t-34.5 -112l-176 -663q-32 -119 -63 -196t-78.5 -134.5 t-125.5 -89t-192 -31.5q-127 0 -212 54.5t-85 138.5z" />
<glyph unicode="K" horiz-adv-x="1366" d="M29 0l14 55q83 0 115 51t61 158q16 57 45 165t82 305.5t87 328t34 147.5q0 47 -19.5 66.5t-64.5 19.5h-55l14 56h504l-15 -56q-84 0 -115 -49.5t-59 -159.5l-86 -315q130 82 229.5 155t198.5 163q90 77 118 107.5t28 49.5q0 27 -26 36.5t-109 12.5l16 56h473l-16 -56 q-59 -9 -100.5 -31.5t-133.5 -93.5l-518 -399l289 -508q56 -96 79 -128.5t68 -56.5t119 -24l-14 -55h-545l16 55h52q65 0 65 47q0 25 -11 54t-29 60.5t-27 47.5l-240 434l-117 -434q-13 -49 -19.5 -80t-6.5 -49q0 -80 84 -80h53l-15 -55h-503z" />
<glyph unicode="L" horiz-adv-x="1139" d="M27 0l14 55q84 0 116.5 51t61.5 158q16 57 58 214t80 299.5t73 281.5t35 155q0 82 -84 82h-53l14 56h504l-15 -56q-58 0 -91.5 -27.5t-48.5 -66t-36 -115.5l-217 -808q-22 -88 -22 -117q0 -25 17 -38t49.5 -19t58 -6.5t45.5 -0.5q119 0 207 25.5t159.5 82t147.5 152.5 l37 -18l-131 -340h-979z" />
<glyph unicode="M" horiz-adv-x="1706" d="M6 0l14 55q85 0 116.5 51t60.5 158l254 948q-11 54 -46 68t-100 14l17 58h352l127 -1002l647 1002h350l-16 -58q-59 0 -92.5 -25t-48.5 -65t-33 -117q-25 -100 -88 -350.5t-102.5 -413t-39.5 -182.5q0 -86 88 -86h50l-15 -55h-504l15 55q84 0 116.5 51t61.5 158l227 850 l-725 -1114h-41l-139 1075q-14 -56 -56.5 -225t-75 -302t-63 -262t-30.5 -145q0 -40 19 -59t46 -23t72 -4l-16 -55h-402z" />
<glyph unicode="N" horiz-adv-x="1366" d="M-10 0l14 55q61 0 95 27t47 62t34 120l228 928q-17 48 -31.5 68t-37.5 26.5t-73 9.5l15 56h292l424 -1012l199 743q7 21 14 46t11 44.5t4 38.5q0 84 -84 84h-54l15 56h391l-14 -56q-85 0 -116.5 -50.5t-62.5 -162.5q-29 -111 -86.5 -330t-122.5 -464t-87 -316h-43 l-482 1110q-14 -57 -31.5 -130t-72.5 -304t-86 -365t-31 -141q0 -59 34 -73.5t103 -14.5l-14 -55h-391z" />
<glyph unicode="O" horiz-adv-x="1479" d="M96 465q0 176 72.5 342.5t199 295t288.5 202t335 73.5q152 0 267 -61t178 -170t63 -254q0 -179 -71 -345t-197 -297t-285.5 -204.5t-331.5 -73.5q-118 0 -212.5 33.5t-164 99t-105.5 158t-36 201.5zM328 418q0 -177 78 -270t227 -93q148 0 267.5 87.5t201 227t124 299.5 t42.5 294q0 100 -36.5 176.5t-105 116.5t-161.5 40q-148 0 -269 -83t-203 -217.5t-123.5 -288.5t-41.5 -289z" />
<glyph unicode="P" horiz-adv-x="1251" d="M27 0l14 55q83 0 115 51t61 158q16 58 48 179t82.5 310t84 319.5t33.5 144.5q0 79 -84 79h-53l14 56h383q273 0 410 -79t137 -243q0 -117 -67 -210t-186 -145t-267 -52q-75 0 -217 16q-32 -115 -79.5 -297.5t-47.5 -206.5q0 -80 84 -80h75l-16 -55h-524zM559 733 q131 -16 168 -16q151 0 232 84t81 237q0 117 -56.5 169.5t-186.5 52.5q-44 0 -66.5 -9.5t-38 -41t-33.5 -99.5z" />
<glyph unicode="Q" horiz-adv-x="1479" d="M98 459q0 180 72 346.5t196.5 295.5t287 203t335.5 74q115 0 209 -34t162 -98.5t103.5 -154t35.5 -198.5q0 -158 -57.5 -309t-161 -277t-240.5 -210.5t-290 -112.5q57 -138 172.5 -219.5t253.5 -81.5q16 0 28 2l-14 -50q-37 -2 -84 -2q-156 0 -293 34.5t-245 118.5 t-165 220q-92 33 -161.5 98.5t-106.5 157t-37 197.5zM330 418q0 -177 78 -270t227 -93q146 0 267 87.5t202 226t123.5 297t42.5 292.5q0 107 -36.5 182.5t-104.5 115.5t-162 40q-147 0 -268 -83.5t-202 -216.5t-124 -287t-43 -291z" />
<glyph unicode="R" horiz-adv-x="1251" d="M27 0l14 55q83 0 115 51t61 158q16 58 39 145t82.5 310.5t93 354t33.5 143.5q0 79 -84 79h-53l14 56h467q202 0 332.5 -62t130.5 -246q0 -158 -108.5 -242t-286.5 -126l159 -412q15 -37 33 -81t42 -71.5t58.5 -42t87.5 -14.5l-16 -55h-313l-256 662h-129 q-15 -53 -41 -151t-59 -229.5t-33 -146.5q0 -80 82 -80h53l-15 -55h-503zM567 760q139 0 237 16.5t167 79t69 191.5q0 101 -60 155.5t-169 54.5q-76 0 -96.5 -6t-26.5 -30z" />
<glyph unicode="S" d="M49 -27l64 463h61q6 -184 80 -282.5t205 -98.5q67 0 120 33t82 92t29 133q0 95 -52.5 168.5t-162 181t-162.5 186.5t-53 187q0 94 46 173t126.5 124t179.5 45q47 0 77.5 -6.5t100.5 -25.5t93 -19q26 0 45.5 11.5t38.5 39.5h59l-80 -417h-51q0 140 -51.5 237.5 t-179.5 97.5q-59 0 -106 -24.5t-73 -69t-26 -104.5q0 -78 43 -133.5t158 -173t172 -212.5t57 -214q0 -88 -29 -159.5t-84.5 -124t-132 -80.5t-170.5 -28q-57 0 -162.5 29t-138.5 29q-49 0 -61 -58h-62z" />
<glyph unicode="T" horiz-adv-x="1139" d="M172 1030l86 322h1092l-80 -340h-45q1 12 4.5 38t3.5 48q0 174 -242 174h-80q-33 -120 -117.5 -434.5t-132 -499t-47.5 -201.5q0 -82 84 -82h76l-14 -55h-578l15 55q88 0 128 16.5t57 54.5t44 140l270 1006h-139q-126 0 -204 -60.5t-136 -181.5h-45z" />
<glyph unicode="U" horiz-adv-x="1479" d="M250 350q0 66 10.5 125.5t48.5 200.5q15 54 46 167t61 230.5t30 136.5q0 86 -84 86h-55l15 56h505l-16 -56q-82 0 -113.5 -49.5t-60.5 -159.5l-127 -473q-40 -151 -50.5 -206.5t-10.5 -108.5q0 -96 82.5 -163.5t199.5 -67.5t198 63t127.5 157.5t81.5 226t54 204.5 q14 50 45.5 165t56.5 212t25 116q0 84 -84 84h-55l14 56h391l-14 -56q-81 0 -113.5 -51t-60.5 -158l-131 -491q-38 -146 -76 -251t-98 -188.5t-156.5 -133.5t-239.5 -50q-97 0 -178 27t-142.5 78.5t-93.5 121.5t-32 150z" />
<glyph unicode="V" horiz-adv-x="1251" d="M233 1296l15 56h491l-14 -56h-31q-48 0 -74 -18.5t-36.5 -64t-10.5 -128.5l5 -753l540 753q90 125 90 164q0 47 -61 47h-41l14 56h363l-15 -56q-52 -9 -92.5 -46.5t-134.5 -164.5l-807 -1112h-63l-6 1112q-2 113 -22.5 162t-109.5 49z" />
<glyph unicode="W" horiz-adv-x="1706" d="M223 1296l15 56h491l-14 -56h-37q-80 0 -100.5 -55.5t-20.5 -155.5l6 -686l402 643v43q0 63 -8.5 107.5t-38.5 74t-89 29.5l15 56h475l-14 -56h-29q-62 0 -85.5 -37t-23.5 -133v-41l15 -686l409 686q47 80 61.5 110.5t14.5 53.5q0 25 -14.5 36t-48.5 11h-45l14 56h373 l-15 -56q-56 -12 -84 -27t-56.5 -52.5t-86.5 -131.5l-676 -1112h-41l-20 899l-561 -899h-39l-9 1112q-2 102 -6 134t-31.5 54.5t-97.5 22.5z" />
<glyph unicode="X" horiz-adv-x="1251" d="M23 0l14 55q39 2 64.5 9t51.5 27.5t58 56.5t92 116l289 383l-162 440q-34 93 -49 126t-50 58t-102 25l15 56h469l-15 -56h-47q-73 0 -73 -61q0 -22 29.5 -107t63.5 -175t50 -130q32 43 98.5 135t129.5 185t63 112q0 41 -72 41h-16l16 56h360l-14 -56q-46 -6 -79 -25.5 t-74 -68.5q-42 -46 -87 -100.5t-98.5 -125.5t-90.5 -123t-97 -134l170 -455q32 -85 50 -120t56.5 -62t102.5 -27l-17 -55h-483l14 55h54q71 0 71 60q0 35 -10.5 64.5t-34.5 84.5l-104 283l-215 -283q-107 -138 -107 -176q0 -33 60 -33h28l-14 -55h-358z" />
<glyph unicode="Y" horiz-adv-x="1139" d="M170 0l14 55q83 0 124 18t60.5 57.5t43.5 135.5l96 359l-158 518q-24 77 -39.5 104.5t-42.5 38t-82 12.5l15 54h485l-14 -54q-13 -1 -40.5 -3t-45 -6.5t-31.5 -17.5t-14 -34q0 -8 26 -102.5t62.5 -217.5t52.5 -174q74 83 160.5 195.5t143 200t56.5 108.5q0 51 -92 51h-28 l14 54h393l-14 -54q-43 -9 -70 -26t-69.5 -66t-124.5 -155l-328 -426q-14 -49 -44 -159t-55.5 -209.5t-25.5 -117.5q0 -84 84 -84h76l-15 -55h-573z" />
<glyph unicode="Z" horiz-adv-x="1139" d="M-8 0l12 45l918 1208h-258q-136 0 -213.5 -20.5t-126.5 -67.5q-23 -23 -38 -48.5t-44 -88.5h-49l100 324h924l-13 -49l-909 -1205h223q120 0 190 7.5t127.5 33.5t103 81.5t87.5 152.5h49l-117 -373h-966z" />
<glyph unicode="[" horiz-adv-x="797" d="M33 -371l461 1723h401l-14 -56h-164q-54 0 -70 -16q-26 -96 -101 -373t-151.5 -560.5t-121 -448.5t-44.5 -170q0 -23 22.5 -33t76.5 -10h143l-14 -56h-424z" />
<glyph unicode="\" horiz-adv-x="569" d="M199 1352h129l194 -1395h-125z" />
<glyph unicode="]" horiz-adv-x="797" d="M-82 -371l14 56h166q54 0 69 17.5t28 78.5q24 92 69 260.5t138.5 522t137.5 519.5t44 172q0 24 -20.5 32.5t-76.5 8.5h-145l16 56h422l-461 -1723h-401z" />
<glyph unicode="^" horiz-adv-x="864" d="M115 946l250 410h133l252 -410h-142l-176 250l-176 -250h-141z" />
<glyph unicode="_" horiz-adv-x="946" d="M-10 -164h962v-143h-962v143z" />
<glyph unicode="`" horiz-adv-x="682" d="M371 1382h231l111 -354h-37z" />
<glyph unicode="a" d="M27 221q0 104 51.5 229.5t137 234.5t193.5 177t218 68q52 0 85 -19t72 -73l17 65h153q-21 -80 -72 -275.5t-85.5 -333t-34.5 -153.5q0 -45 20 -45q18 0 62.5 41.5t97.5 106.5l33 -37q-95 -123 -163 -178.5t-126 -55.5q-37 0 -62.5 26.5t-25.5 68.5q0 45 35 206 q-79 -139 -185 -220t-208 -81q-59 0 -108.5 32t-77 88.5t-27.5 127.5zM211 264q0 -82 32 -125t93 -43q77 0 149 69t130 176t91 215t33 179q0 58 -31.5 95.5t-80.5 37.5q-104 0 -201 -105t-156 -250.5t-59 -248.5z" />
<glyph unicode="b" d="M82 96q0 11 78.5 313t135.5 518.5t91 342.5q0 52 -61 55h-76l12 41l338 53l-201 -747q57 74 109.5 129t118.5 92t143 37q71 0 126 -33t85.5 -95.5t30.5 -142.5q0 -115 -56 -238.5t-152.5 -225t-214.5 -162t-237 -60.5q-66 0 -168 36t-102 87zM266 111q0 -76 107 -76 q90 0 174 64t146 163.5t98 207.5t36 194q0 69 -38.5 112t-98.5 43q-81 0 -176 -99t-147 -239q-44 -115 -72.5 -218.5t-28.5 -151.5z" />
<glyph unicode="c" horiz-adv-x="909" d="M72 309q0 109 44.5 219t124 202t182 146t214.5 54q65 0 117 -21.5t81 -60t29 -88.5q0 -51 -27 -81t-71 -30q-38 0 -64 27t-26 65q0 27 12 45q6 9 12.5 18t10.5 17t4 17q0 13 -24 21.5t-64 8.5q-70 0 -136 -46t-120 -128.5t-84.5 -184t-30.5 -210.5q0 -108 52 -176 t136 -68q61 0 121.5 41t141.5 135l41 -26q-63 -82 -119.5 -133.5t-116 -75t-129.5 -23.5q-95 0 -165 41t-108 117t-38 178z" />
<glyph unicode="d" d="M25 231q0 104 52.5 226.5t142.5 232t199.5 175t217.5 65.5q55 0 89 -20t62 -70l89 327q20 72 20 103q0 55 -63 55h-74l12 41l338 53l-317 -1179q-21 -78 -21 -97q0 -47 31 -47q21 0 53 27.5t65 64.5t46 52l32 -33q-127 -141 -189 -187.5t-120 -46.5q-41 0 -65.5 31 t-24.5 84q0 57 23 133q-53 -96 -160 -172t-209 -76q-68 0 -120 32t-80.5 90.5t-28.5 135.5zM209 223q2 -62 38.5 -100.5t92.5 -38.5q108 0 201.5 117t148.5 277.5t55 262.5q0 62 -28.5 94.5t-85.5 32.5t-130 -55t-139.5 -147.5t-109.5 -210t-43 -232.5z" />
<glyph unicode="e" horiz-adv-x="909" d="M66 272q0 147 87.5 301.5t230 255.5t290.5 101q78 0 124 -41t46 -111q0 -87 -72.5 -173t-187.5 -134q-110 -48 -312 -80q-11 -34 -16.5 -61.5t-5.5 -59.5q0 -78 58 -132t145 -54q34 0 57 5.5t55 21t67.5 41t102.5 77.5l29 -34q-124 -111 -211.5 -166.5t-198.5 -55.5 q-86 0 -151 38t-101 106t-36 155zM293 442q110 32 172 60q94 43 162.5 128.5t68.5 162.5q0 31 -21 53t-50 22q-70 0 -139 -74t-119.5 -175.5t-73.5 -176.5z" />
<glyph unicode="f" horiz-adv-x="569" d="M-322 -311q0 43 23.5 70.5t62.5 27.5q33 0 56.5 -22t23.5 -54q0 -13 -8 -34t-8 -31q0 -17 25 -17q94 0 145 128t90 298l191 770h-181l21 78h180q61 164 105.5 256t129 169t203.5 77q81 0 124.5 -33.5t43.5 -97.5q0 -42 -25 -69t-65 -27q-33 0 -56.5 21.5t-23.5 55.5 q0 20 8 31q17 24 17 33q0 24 -37 24q-55 0 -96.5 -46.5t-71 -117.5t-50 -147.5t-34.5 -128.5h231l-36 -78h-215l-142 -526q-36 -140 -67.5 -245t-86.5 -219.5t-135.5 -190.5t-187.5 -76q-67 0 -110.5 34t-43.5 87z" />
<glyph unicode="g" d="M-35 -193q0 47 21.5 89.5t55.5 75t76 62.5t83 56q-31 30 -40 43.5t-9 34.5q0 86 180 172q-182 74 -182 235q0 68 38.5 134t104 115.5t149.5 77.5t179 28q80 0 168 -41t135 -41h73v-88h-98q1 -17 4.5 -48.5t3.5 -58.5q0 -81 -64.5 -159.5t-160.5 -128.5t-174 -50 q-22 0 -107 11q-65 -46 -65 -80q0 -29 70 -54t170.5 -61.5t165.5 -94t65 -151.5q0 -70 -32 -127t-92.5 -99t-143.5 -65.5t-181 -23.5q-180 0 -286.5 64.5t-106.5 172.5zM84 -172q0 -59 36.5 -104t104 -69t150.5 -24q119 0 201.5 55.5t82.5 135.5q0 53 -40 94t-113 64 l-244 81q-102 -64 -140 -114t-38 -119zM334 516q0 -71 34.5 -108t102.5 -37q77 0 137.5 58.5t94.5 143t34 158.5q0 63 -34 100t-91 37q-73 0 -137 -48.5t-102.5 -129t-38.5 -174.5z" />
<glyph unicode="h" d="M53 0q21 76 66.5 241t108 397.5t112 423.5t49.5 208q0 55 -63 55h-74l10 41l340 53l-229 -848q41 53 91 117.5t103 118t113.5 88.5t124.5 35q58 0 93.5 -33t35.5 -88q0 -29 -22.5 -124.5t-55.5 -216.5t-49.5 -179t-26.5 -92q-20 -71 -20 -86q0 -27 24 -27q26 0 63.5 31.5 t98.5 103.5l35 -22q-158 -224 -297 -224q-38 0 -65 28.5t-27 70.5q0 16 28 128.5t77.5 307t68.5 268.5q0 43 -45 43q-58 0 -143 -86q-213 -203 -293 -487l-66 -246h-166z" />
<glyph unicode="i" horiz-adv-x="569" d="M100 111q0 22 59.5 268.5t98.5 404.5q0 56 -61 56h-74l10 41l338 55q-24 -89 -82.5 -309t-95.5 -363.5t-37 -144.5q0 -35 35 -35q25 0 54 28t106 126l34 -31q-68 -96 -112 -144t-81.5 -69t-78.5 -21q-53 0 -83 37t-30 101zM322 1249q0 43 31 73t73 30q21 0 40.5 -8 t32.5 -21t21 -33.5t8 -40.5q0 -43 -29.5 -73.5t-72.5 -30.5q-42 0 -73 31t-31 73z" />
<glyph unicode="j" horiz-adv-x="569" d="M-264 -301q0 42 23.5 68t62.5 26q35 0 54.5 -20.5t19.5 -55.5q0 -13 -11.5 -36t-11.5 -33q0 -19 29 -19q42 0 76.5 48t60 118t37.5 118l35 140q21 79 73 278t83.5 323t31.5 130q0 56 -61 56h-74l10 41l338 55l-193 -723q-41 -154 -65 -235t-73.5 -180.5t-124 -164.5 t-175.5 -65q-65 0 -105 35.5t-40 95.5zM381 1249q0 43 31 73t73 30q20 0 40.5 -8t33.5 -21t21 -33.5t8 -40.5q0 -43 -29.5 -73.5t-73.5 -30.5q-42 0 -73 31t-31 73z" />
<glyph unicode="k" horiz-adv-x="909" d="M27 0q21 78 57 215t114.5 433t120 456.5t41.5 165.5q0 52 -63 55h-74l13 41l337 53l-254 -942q72 54 116.5 88.5t98.5 82.5t95 91q59 62 59 90q0 29 -61 29h-60l13 45h393l-12 -45q-63 -10 -125.5 -42.5t-111 -72t-105.5 -93t-115 -107.5q16 -42 48.5 -125.5t60 -145.5 t64 -119t60.5 -57q44 0 115 137l41 -22q-58 -122 -112.5 -180t-110.5 -58q-63 0 -119.5 84t-103.5 204t-70 179l-84 -65l-100 -375h-166z" />
<glyph unicode="l" horiz-adv-x="569" d="M90 84q19 71 54 205t89.5 343t105 414.5t50.5 223.5q0 55 -63 55h-74l10 41l338 55l-321 -1208q-21 -71 -21 -107q0 -13 9.5 -25.5t21.5 -12.5q65 0 190 192l39 -29q-26 -37 -58 -83.5t-70 -86.5t-82 -64t-95 -24q-56 0 -89.5 30t-33.5 81z" />
<glyph unicode="m" horiz-adv-x="1479" d="M53 0l185 684q20 79 20 100q0 56 -63 56h-74l10 41l340 55l-115 -422q76 121 131 199t133.5 147.5t153.5 69.5q51 0 83 -35t32 -90q0 -47 -49 -277q45 78 81.5 136t89 120.5t112.5 104t120 41.5q31 0 58.5 -18.5t42 -49t14.5 -69.5q-17 -71 -50 -208t-69.5 -290.5 t-38.5 -175.5v-2q0 -12 7 -22.5t18 -10.5q41 0 118 111l29 38l37 -14q-89 -141 -147 -193.5t-123 -52.5q-44 0 -74.5 31.5t-30.5 77.5q0 15 26.5 129t54.5 227t42 166q15 48 21 66.5t11 46t5 43.5q0 47 -47 47q-38 0 -85.5 -44t-119.5 -147q-62 -87 -110.5 -192t-71.5 -193 l-62 -231h-166l160 598q33 119 33 158q0 51 -45 51q-40 0 -89.5 -46.5t-121.5 -152.5q-64 -93 -107.5 -187.5t-71 -179.5t-71.5 -241h-166z" />
<glyph unicode="n" d="M53 0q23 84 42 156t91 347.5t72 280.5q0 56 -63 56h-74l10 41l340 55l-117 -430q26 36 89.5 132.5t110 152.5t108.5 97.5t137 41.5q58 0 91.5 -37.5t33.5 -99.5q0 -14 -34 -154t-59 -238.5t-40 -154.5q-4 -17 -11 -41.5t-10.5 -46t-3.5 -33.5q0 -11 8 -20t19 -9 q23 0 55 31.5t98 118.5l37 -19q-88 -140 -151.5 -197t-131.5 -57q-43 0 -70.5 34.5t-27.5 88.5q0 23 7 70.5t22 103.5q14 49 45 162.5t55.5 209t24.5 112.5q0 24 -11 38.5t-30 14.5q-77 0 -201 -145q-74 -85 -135 -193.5t-94 -222.5l-66 -246h-166z" />
<glyph unicode="o" d="M66 283q0 155 77 305t210 246t288 96q93 0 163 -40.5t109 -115.5t39 -172q0 -142 -82 -289.5t-215.5 -243.5t-275.5 -96q-89 0 -159.5 38.5t-110.5 108.5t-43 163zM250 225q3 -83 49.5 -136.5t114.5 -53.5q107 0 188 109t123.5 257.5t42.5 253.5q0 102 -38 157.5 t-109 55.5q-110 0 -195 -112.5t-130.5 -265.5t-45.5 -265z" />
<glyph unicode="p" d="M-170 -406l10 41q80 0 107.5 33t50.5 125q29 104 87 316.5t115.5 433.5t57.5 241q0 56 -63 56h-74l10 41l340 55l-59 -215q78 107 157.5 158t175.5 51q70 0 121 -31.5t78 -89t27 -135.5q0 -121 -49.5 -246t-136 -228.5t-197.5 -165t-230 -61.5q-53 0 -137 33 q-20 -69 -50 -180t-30 -133q0 -58 62 -58h61l-10 -41h-424zM252 106q0 -30 26.5 -50.5t61.5 -20.5q124 0 227.5 110.5t162 266t58.5 272.5q0 70 -31.5 111t-88.5 41q-220 0 -342 -441q-18 -69 -46 -176.5t-28 -112.5z" />
<glyph unicode="q" d="M49 242q0 140 86.5 302.5t225 274t280.5 111.5q56 0 89 -23t65 -86l22 82h164q-35 -132 -79 -297t-142 -535.5t-98 -379.5q0 -51 63 -56h76l-10 -41h-478l13 41q73 0 105.5 10.5t50 41.5t36.5 106l121 451q-61 -78 -112.5 -134t-118 -97.5t-138.5 -41.5q-97 0 -159 76 t-62 195zM233 250q8 -154 113 -154q76 0 148.5 69t131.5 175.5t94.5 216.5t35.5 180q0 56 -32.5 92.5t-84.5 36.5q-85 0 -180 -94.5t-160.5 -240t-65.5 -281.5z" />
<glyph unicode="r" horiz-adv-x="797" d="M68 0l184 684q20 79 20 100q0 56 -63 56h-74l10 41l328 55l-98 -367q40 67 75 126.5t72.5 111t87 87.5t107.5 36q48 0 76 -31t28 -84q0 -49 -27 -81t-69 -32q-47 0 -74 41q-25 39 -37 39q-17 0 -48.5 -33t-71.5 -92q-144 -205 -203 -446l-58 -211h-165z" />
<glyph unicode="s" horiz-adv-x="797" d="M-20 -27l38 332h52q39 -270 274 -270q44 0 81.5 17.5t59 50t21.5 71.5q0 63 -43.5 122t-125.5 142t-125.5 147t-43.5 136q0 59 36 106.5t100.5 75t141.5 27.5q45 0 123 -18.5t119 -18.5q39 0 68 35h30l-38 -299h-41q-28 124 -87.5 181.5t-160.5 57.5q-57 0 -92 -26 t-35 -70q0 -52 35.5 -97.5t123.5 -138t133.5 -163.5t45.5 -148q0 -107 -99 -179.5t-249 -72.5q-41 0 -119.5 13t-120.5 16q-34 0 -55 -29h-47z" />
<glyph unicode="t" horiz-adv-x="569" d="M68 80q0 39 32 170l156 575h-162l15 49q76 22 132.5 57.5t99 76.5t120.5 125h41l-62 -230h183l-21 -78h-182l-150 -561q-6 -22 -10 -37t-9.5 -34t-8 -35.5t-2.5 -34.5q0 -43 39 -43q54 0 167 170l37 -21q-77 -120 -143.5 -188t-161.5 -68q-46 0 -78 30t-32 77z" />
<glyph unicode="u" d="M72 98q0 59 30 183q8 30 32 122t39.5 149t36.5 141.5t21 90.5q0 56 -63 56h-47l12 41l311 55q-23 -83 -72 -267t-91.5 -350t-42.5 -184q0 -17 11 -28t27 -11q41 0 112.5 73.5t146.5 190.5q80 122 138 260t97 283h166q-22 -80 -69.5 -256.5t-90 -339t-45.5 -188.5 q0 -35 25 -35q15 0 38 19t55.5 55.5t50 57.5t26.5 32l39 -23q-63 -92 -112 -148.5t-87.5 -80t-79.5 -23.5q-54 0 -86.5 31t-32.5 82q0 52 11 107t34 134t29 101q-34 -54 -87 -138t-112.5 -155.5t-125.5 -116.5t-136 -45q-42 0 -75 37t-33 88z" />
<glyph unicode="v" horiz-adv-x="909" d="M29 838l10 34l299 58q53 -122 81 -308.5t48 -422.5q119 119 232.5 265.5t113.5 235.5q0 14 -10.5 27t-36.5 35q-47 41 -47 86q0 82 90 82q53 0 88 -37.5t35 -93.5q0 -74 -63.5 -188t-161.5 -239t-194.5 -229.5t-170.5 -169.5l-33 27q-7 122 -18.5 255t-33 260.5 t-52.5 232.5q-16 59 -59.5 74.5t-116.5 15.5z" />
<glyph unicode="w" horiz-adv-x="1366" d="M43 829l10 35l258 66q48 -106 73.5 -277.5t43.5 -380.5l393 658l27 -27l90 -721q45 50 127.5 156.5t140.5 204.5t58 145q0 29 -22.5 54.5l-45 51t-22.5 54.5q0 36 23.5 57t62.5 21q48 0 79 -37t31 -92q0 -77 -57 -186.5t-140 -224.5t-168 -215.5t-159 -180.5l-33 16 l-86 662l-408 -695l-32 17q-6 207 -28 399t-60 359q-13 54 -29 67.5t-68 13.5h-59z" />
<glyph unicode="x" horiz-adv-x="909" d="M-53 63q0 36 19 60t50 24q24 0 60 -20.5t55 -20.5q28 0 78 62t115 162.5t73 111.5q-25 174 -53 287t-94 113q-23 0 -111 -25l-12 39q44 16 89.5 33.5t88 29t82.5 11.5q37 0 62.5 -31.5t38.5 -74.5t23.5 -106.5t12.5 -74.5q13 19 51.5 81.5t74 106t78 71.5t89.5 28 q44 0 70 -22.5t26 -59.5q0 -33 -21.5 -57.5t-49.5 -24.5q-13 0 -55 16.5t-54 16.5q-24 0 -62.5 -46.5t-66.5 -92.5t-69 -113l38 -166q41 -167 51.5 -206t21 -54t30.5 -15q26 0 53.5 27.5t81.5 104.5l37 -25q-62 -106 -118.5 -173t-133.5 -67q-58 0 -93 67t-53 151.5 t-36 170.5q-35 -57 -76 -121.5t-88.5 -125.5t-101.5 -101.5t-105 -40.5q-41 0 -68.5 25t-27.5 65z" />
<glyph unicode="y" horiz-adv-x="909" d="M-49 -336q0 39 23.5 63.5t62.5 24.5q25 0 65 -25.5t60 -25.5q59 0 124.5 85t137.5 200q-47 361 -168 708q-26 79 -58.5 111.5t-84.5 32.5q-40 0 -82 -7l-6 41l303 58q40 -27 84.5 -171t76 -290.5t60.5 -302.5q53 92 109 187t94.5 182.5t38.5 150.5q0 34 -28.5 56.5 t-57.5 45t-29 56.5q0 39 23.5 62.5t62.5 23.5q53 0 87 -38.5t34 -96.5q0 -87 -90 -289.5t-225.5 -421.5t-274 -367.5t-236.5 -148.5q-47 0 -76.5 27t-29.5 69z" />
<glyph unicode="z" horiz-adv-x="797" d="M-18 20q38 46 77 92.5t62 73.5l483 578h-221q-91 0 -129.5 -6.5t-59 -28.5t-42.5 -76h-46l66 250h565l37 -33l-586 -684q86 -13 141 -51t107.5 -103.5t81 -90.5t76.5 -25q18 0 31.5 8t13.5 21q0 9 -18 30q-21 24 -21 48q0 28 22.5 49.5t51.5 21.5q35 0 59.5 -25.5 t24.5 -60.5q0 -66 -57 -109.5t-144 -43.5q-56 0 -100.5 19t-117.5 63.5t-125.5 67t-109.5 22.5q-47 0 -94 -33z" />
<glyph unicode="{" horiz-adv-x="819" d="M156 -219q0 53 14 102l125 463q8 31 8 68q0 45 -31.5 75t-89.5 43q94 21 141.5 62t69.5 123l109 407q38 137 129 182.5t246 45.5q-156 -40 -201 -197l-88 -330q-28 -112 -46 -158.5t-63.5 -84t-134.5 -50.5q65 -20 91 -50t26 -85q0 -36 -12 -94l-130 -477q-8 -38 -8 -62 q0 -53 29 -85t94 -50h-43q-126 0 -180.5 35.5t-54.5 116.5z" />
<glyph unicode="|" horiz-adv-x="563" d="M209 -94v1450h145v-1450h-145z" />
<glyph unicode="}" horiz-adv-x="819" d="M-41 -371q73 29 105 47t56 52.5t40 99.5l88 328q28 105 47 155t65 88t132 52q-64 18 -90.5 48t-26.5 85q0 43 14 94l127 477q8 38 8 62q0 54 -29.5 86.5t-91.5 48.5h43q81 0 133.5 -15.5t76.5 -48t24 -88.5q0 -50 -14 -102l-123 -463q-11 -42 -11 -68q0 -43 32 -73.5 t91 -42.5q-93 -21 -142 -64t-71 -123l-108 -407q-36 -134 -127 -181t-248 -47z" />
<glyph unicode="~" horiz-adv-x="1108" d="M117 604q97 193 241 193q44 0 92 -19t114 -55t105 -53t74 -17q50 0 85 32t96 138l67 -75q-79 -197 -243 -197q-58 0 -126 36t-136 71.5t-126 35.5q-50 0 -80.5 -29.5t-89.5 -136.5z" />
<glyph unicode="&#xa0;" />
<glyph unicode="&#xa1;" horiz-adv-x="797" d="M57 -387q0 32 21 84l328 852h36l-131 -844l-8 -51q-7 -51 -54.5 -92t-98.5 -41q-39 0 -66 27t-27 65zM358 811q0 50 33.5 84.5t81.5 34.5q50 0 84.5 -35.5t34.5 -85.5q0 -51 -34 -85t-83 -34q-50 0 -83.5 35.5t-33.5 85.5z" />
<glyph unicode="&#xa2;" d="M174 459q0 141 59.5 267.5t180.5 216t293 116.5l41 153h75l-41 -151q89 -2 147 -48.5t58 -115.5q0 -52 -24.5 -81.5t-71.5 -29.5q-39 0 -64.5 27.5t-25.5 67.5q0 21 10 43q4 6 12.5 16t13.5 19t5 14q0 12 -20.5 20t-53.5 8l-213 -790q80 0 146 44.5t137 123.5l41 -25 q-78 -100 -153.5 -150.5t-193.5 -74.5l-43 -160h-73l41 158q-132 15 -207.5 104.5t-75.5 227.5zM358 461q0 -168 125 -234l207 772q-97 -32 -164.5 -89.5t-103 -127.5t-50 -152t-14.5 -169z" />
<glyph unicode="&#xa3;" horiz-adv-x="1210" d="M31 119q0 68 44.5 111.5t114.5 43.5q59 0 185 -63q45 117 69 219t33 223h-209l17 68h194q16 327 134.5 492t338.5 165q100 0 161 -43t61 -116q0 -60 -30 -96t-77 -36q-40 0 -66 22.5t-26 57.5q0 37 14 56q5 6 11 13t9 12t3 16q0 25 -24 40t-64 15q-85 0 -134.5 -64.5 t-71 -160t-28.5 -188.5t-14 -185h274l-18 -68h-264q-20 -90 -47 -168t-66.5 -154.5t-91.5 -146.5q66 -20 134.5 -32.5t121.5 -12.5q101 0 177 51.5t103 139.5l29 -17q-36 -157 -124.5 -248.5t-205.5 -91.5q-154 0 -301 103q-68 -57 -113.5 -79t-101.5 -22q-64 0 -107.5 41 t-43.5 103zM104 106q0 -27 21 -48t49 -21q41 0 74 22t71 72q-74 47 -133 47q-37 0 -59.5 -19.5t-22.5 -52.5z" />
<glyph unicode="&#xa4;" d="M123 307l147 148q-36 63 -47.5 100t-11.5 96t11.5 97t47.5 98l-147 149l96 97l148 -150q54 38 92.5 50t103.5 12t104 -12t93 -50l147 150l97 -97l-148 -149q37 -53 49.5 -90.5t12.5 -104.5q0 -66 -12.5 -104.5t-49.5 -91.5l148 -148l-97 -96l-147 147q-66 -38 -104 -49.5 t-93 -11.5t-92.5 11.5t-103.5 49.5l-148 -147zM348 651q0 -89 63 -152t152 -63q91 0 154 63t63 152t-63 151t-154 62q-89 0 -152 -62t-63 -151z" />
<glyph unicode="&#xa5;" d="M-12 522l28 109h445l-43 145h-363l29 109h301l-80 258q-24 77 -39.5 104.5t-42.5 38t-82 12.5l15 54h485l-14 -54q-13 -1 -40.5 -3t-45 -6.5t-31.5 -17.5t-14 -34q0 -8 26 -102.5t62.5 -217.5t52.5 -174q79 86 163 194.5t140.5 195t56.5 114.5q0 33 -30.5 40.5 t-87.5 10.5l14 54h391l-14 -54q-43 -9 -70 -26t-69.5 -66t-124.5 -155l-129 -166h268l-29 -109h-325l-111 -145h397l-28 -109h-400q-11 -37 -33 -118.5t-42.5 -165t-20.5 -99.5q0 -84 86 -84h76l-17 -55h-573l16 55q86 0 125.5 16.5t56.5 54.5t44 140l69 256h-448z" />
<glyph unicode="&#xa7;" d="M102 -215q0 43 26.5 70.5t68.5 27.5q33 0 52 -16.5t19 -48.5q0 -13 -8 -36t-8 -36q0 -16 21 -25.5t53 -9.5q83 0 141.5 54.5t58.5 132.5q0 58 -20 90l-273 456q-38 65 -38 148q0 102 69.5 169.5t173.5 67.5q27 0 70 -14q-58 95 -78 150.5t-20 126.5q0 86 42 152 t119.5 102t176.5 36q95 0 150.5 -33.5t55.5 -91.5q0 -42 -25.5 -70t-66.5 -28q-31 0 -50 19t-19 49q0 28 16 49q8 11 8 18q0 11 -23.5 19t-56.5 8q-87 0 -135.5 -47.5t-48.5 -132.5q0 -103 31 -148l204 -309q33 -50 54.5 -114.5t21.5 -114.5q0 -98 -71 -168t-170 -70 q-34 0 -74 12q121 -186 121 -272q0 -82 -47.5 -153t-127.5 -112.5t-169 -41.5q-97 0 -160.5 37.5t-63.5 97.5zM309 657q0 -11 4.5 -22t10.5 -21t16 -24l149 -246q66 -65 129 -65q48 0 83.5 33.5t35.5 78.5q0 30 -18 62l-160 274q-55 21 -123 21q-127 0 -127 -91z" />
<glyph unicode="&#xa8;" horiz-adv-x="682" d="M258 1235q0 47 33 82t82 35q32 0 59 -16t42 -42.5t15 -58.5q0 -47 -33 -82t-83 -35q-48 0 -81.5 35t-33.5 82zM608 1235q0 49 34 83t83 34q48 0 82.5 -33.5t34.5 -83.5t-34.5 -83.5t-82.5 -33.5t-82.5 35.5t-34.5 81.5z" />
<glyph unicode="&#xa9;" horiz-adv-x="1556" d="M78 676q0 190 93.5 352t253.5 256t349 94q188 0 348.5 -94t254 -256t93.5 -352t-93.5 -351.5t-253.5 -256.5t-349 -95t-349 95t-253.5 256.5t-93.5 351.5zM176 676q0 -123 46 -234.5t129.5 -195.5t192 -131t230.5 -47t231.5 47.5t192 131t128.5 195t46 234.5t-45.5 234 t-129.5 196.5t-192.5 131.5t-230.5 46t-229.5 -46t-192.5 -131.5t-130.5 -196.5t-45.5 -234zM399 672q0 88 29.5 161t84.5 127t127.5 81.5t160.5 27.5q74 0 143.5 -12t126.5 -37v-207h-49q-9 209 -207 209q-62 0 -112 -23t-88.5 -68.5t-58 -105.5t-19.5 -133 q0 -101 36.5 -183.5t102 -128.5t145.5 -46q62 0 121 30.5t84 73.5q18 33 25 41l39 -14q-30 -85 -120 -139t-198 -54t-193.5 51.5t-132.5 142t-47 206.5z" />
<glyph unicode="&#xaa;" horiz-adv-x="657" d="M25 569l26 99h572l-25 -99h-573zM109 954q0 88 49.5 191.5t130 174.5t162.5 71q29 0 116 -62l13 45h112l-117 -440q-8 -21 -8 -33t13 -12q38 0 75 78l35 -17q-24 -59 -77 -99t-105 -40q-32 0 -52 17.5t-20 48.5q0 2 10 57q-115 -123 -210 -123q-57 0 -92 39t-35 104z M246 977q0 -32 16.5 -51t44.5 -19q59 0 109.5 64.5t80 151t29.5 139.5q0 32 -15.5 48.5t-43.5 16.5q-57 0 -108 -58.5t-82 -142t-31 -149.5z" />
<glyph unicode="&#xab;" d="M70 463l501 448h62l-348 -448l110 -443h-61zM514 463l504 448h61l-348 -448l109 -443h-62z" />
<glyph unicode="&#xac;" horiz-adv-x="1382" d="M213 621v114h956v-735h-122v621h-834z" />
<glyph unicode="&#xad;" horiz-adv-x="682" d="M76 403l33 121h503l-32 -121h-504z" />
<glyph unicode="&#xae;" horiz-adv-x="1556" d="M98 676q0 190 93.5 352t254.5 256t349 94t348.5 -94t254 -256t93.5 -352t-93.5 -351.5t-253.5 -256.5t-349 -95t-349.5 95t-254 256.5t-93.5 351.5zM197 676q0 -123 46 -234.5t129.5 -195.5t192 -131t230.5 -47t231 47.5t191.5 130.5t129 195t46.5 235t-46 234.5 t-130 196.5t-192 131t-230 46t-229.5 -46t-192.5 -131.5t-130.5 -196.5t-45.5 -234zM498 313v31q58 8 74.5 13.5t17.5 39.5l2 19v563q0 48 -8 58.5t-45 13.5q-27 0 -41 2v32h323q134 0 203.5 -48.5t69.5 -143.5q0 -84 -51.5 -132.5t-161.5 -70.5q57 -13 89 -58.5t65.5 -126 t64.5 -121t84 -40.5v-31q-105 0 -142 9.5t-50.5 32.5t-57.5 128q-20 49 -37.5 93.5t-37 62.5t-53.5 24.5t-110 6.5v-244q0 -50 9.5 -63.5t44.5 -14.5q14 0 38 -4v-31h-290zM696 709q21 -2 45 -2q119 0 176.5 42.5t57.5 131.5q0 82 -46 126t-130 44q-16 0 -25.5 -0.5 t-21.5 -1.5q-56 0 -56 -60v-280z" />
<glyph unicode="&#xaf;" horiz-adv-x="682" d="M252 1145l27 98h546l-26 -98h-547z" />
<glyph unicode="&#xb1;" horiz-adv-x="1382" d="M111 55l26 99h944l-26 -99h-944zM266 635l25 98h422l110 414h105l-111 -414h420l-27 -98h-419l-105 -391h-104l104 391h-420z" />
<glyph unicode="&#xb2;" horiz-adv-x="682" d="M150 578q33 32 114.5 110t152.5 155.5t119 151t48 121.5q0 38 -21 70t-58 50.5t-79 18.5q-61 0 -98 -25.5t-72 -90.5l-45 14q21 67 60.5 115.5t93.5 74t116 25.5q101 0 167.5 -60.5t66.5 -152.5q0 -57 -28.5 -111.5t-90.5 -111.5l-152 -139q-33 -34 -72 -73t-63 -61h187 q56 0 79.5 4.5t40 20.5t37.5 55l41 -18l-71 -180h-471z" />
<glyph unicode="&#xb3;" horiz-adv-x="682" d="M137 608q0 27 20.5 45.5t49.5 18.5q27 0 59.5 -17.5t64 -35t58.5 -17.5q60 0 99.5 47.5t39.5 118.5q0 69 -26.5 113t-80.5 65t-136 21l-6 41q157 24 232 68.5t75 115.5q0 41 -32.5 68.5t-78.5 27.5q-37 0 -70 -19.5t-71 -64.5l-39 25q48 75 99 107t122 32q85 0 142 -48 t57 -120q0 -61 -39 -101t-133 -73q52 -26 83 -81.5t31 -125.5q0 -75 -49.5 -144t-133.5 -110t-179 -41q-69 0 -113.5 24t-44.5 60z" />
<glyph unicode="&#xb4;" horiz-adv-x="682" d="M350 1028l150 354h231l-344 -354h-37z" />
<glyph unicode="&#xb5;" horiz-adv-x="1176" d="M-31 -285q0 47 33 117q60 137 110.5 265t90.5 246.5t78 258.5l79 301h181l-150 -561q-24 -85 -24 -123q0 -39 35.5 -67.5t86.5 -28.5q72 0 116 21.5t132 97.5l181 661h178l-176 -651q-15 -54 -15 -76q0 -31 10 -43t37 -12q32 0 78 14l-14 -53l-236 -96q-12 -4 -20 -4 q-24 0 -39.5 24.5t-15.5 63.5q0 28 10 82q-189 -183 -357 -183q-53 0 -89.5 34t-69.5 110q-27 -148 -27 -246q-5 -101 -28 -163t-101 -62q-34 0 -54 19t-20 54z" />
<glyph unicode="&#xb6;" horiz-adv-x="1071" d="M162 883q0 127 81 235t215 171t279 63h432l-14 -54q-6 2 -16 2q-47 0 -70.5 -9.5t-38 -37t-31.5 -90.5l-294 -1108q-19 -62 -19 -84q0 -30 18 -40.5t64 -10.5h39l-14 -53h-594l16 53q4 -2 16 -2q66 0 92.5 26.5t45.5 110.5l157 588q-34 -2 -63 -2q-147 0 -224 62.5 t-77 179.5zM438 -80h123l371 1378h-123z" />
<glyph unicode="&#xb8;" horiz-adv-x="682" d="M-92 -383l14 55q64 -29 90.5 -38t50.5 -9q57 0 95.5 27.5t38.5 66.5q0 90 -156 93l127 188h68l-64 -109q97 -12 140.5 -47.5t43.5 -103.5q0 -50 -31.5 -88t-90 -60t-130.5 -22q-53 0 -88.5 8.5t-107.5 38.5z" />
<glyph unicode="&#xb9;" horiz-adv-x="682" d="M182 541l13 47q62 0 87.5 6.5t38.5 30t29 80.5l135 509q7 26 7 41v2q0 19 -15 25q-10 4 -115 4l11 39q107 16 274 51l-180 -671q-14 -58 -14 -72q0 -45 47 -45h75l-14 -47h-379z" />
<glyph unicode="&#xba;" horiz-adv-x="719" d="M41 567l27 99h612l-27 -99h-612zM211 1001q0 89 48.5 178t130 146t171.5 57q91 0 146 -55t55 -145q0 -95 -50 -182t-133.5 -138t-179.5 -51q-82 0 -135 54t-53 136zM348 973q0 -115 86 -115q44 0 82.5 44t66 106t44 125.5t16.5 99.5q0 45 -21.5 73.5t-54.5 28.5 q-59 0 -109.5 -63t-80 -151t-29.5 -148z" />
<glyph unicode="&#xbb;" d="M-51 18l348 447l-109 444h62l264 -444l-504 -447h-61zM393 18l348 447l-108 444h61l262 -444l-501 -447h-62z" />
<glyph unicode="&#xbc;" horiz-adv-x="1706" d="M182 541l13 47q62 0 87.5 6.5t38.5 30t29 80.5l135 509q7 26 7 41v2q0 19 -15 25q-10 4 -115 4l11 39q107 16 274 51l-180 -671q-14 -58 -14 -72q0 -45 47 -45h75l-14 -47h-379zM319 0l1070 1352h112l-1063 -1352h-119zM1008 205l26 98q126 130 514 508h74l-135 -502h125 l-27 -104h-127l-53 -205h-119l55 205h-333zM1122 309h248l86 322q-57 -53 -120.5 -114t-101.5 -98.5t-112 -109.5z" />
<glyph unicode="&#xbd;" horiz-adv-x="1706" d="M182 541l13 47q62 0 87.5 6.5t38.5 30t29 80.5l135 509q7 26 7 41v2q0 19 -15 25q-10 4 -115 4l11 39q107 16 274 51l-180 -671q-14 -58 -14 -72q0 -45 47 -45h75l-14 -47h-379zM319 0l1070 1352h112l-1063 -1352h-119zM1051 45q67 64 131.5 126t136.5 141t119 151.5 t47 120.5q0 38 -21 70t-58 50.5t-79 18.5q-59 0 -97 -26t-73 -91l-45 15q21 67 60.5 115.5t93.5 74t116 25.5q66 0 119.5 -28t84 -76t30.5 -109q0 -114 -119 -224l-151 -139q-34 -33 -73 -72t-63 -61h187q56 0 79.5 4t40 20.5t37.5 55.5l41 -19l-71 -180h-471z" />
<glyph unicode="&#xbe;" horiz-adv-x="1706" d="M319 0l1070 1352h112l-1063 -1352h-119zM1008 205l26 98q126 130 514 508h74l-135 -502h125l-27 -104h-127l-53 -205h-119l55 205h-333zM1122 309h248l86 322q-57 -53 -120.5 -114t-101.5 -98.5t-112 -109.5z" />
<glyph unicode="&#xbf;" d="M-8 -254q0 115 56 202t177.5 204t192 206t106.5 217h39l-28 -104q-20 -86 -64 -155.5t-130 -191t-125.5 -210.5t-39.5 -193q0 -60 37 -99.5t94 -39.5q70 0 140.5 43t70.5 109q0 20 -12 56t-12 56q0 45 34 79t80 34q36 0 58 -27.5t22 -72.5q0 -91 -67.5 -169t-168 -123.5 t-188.5 -45.5q-126 0 -199 60.5t-73 164.5zM471 811q0 50 33.5 84.5t83.5 34.5q49 0 83 -35t34 -86q0 -50 -33.5 -84.5t-83.5 -34.5q-48 0 -82.5 35.5t-34.5 85.5z" />
<glyph unicode="&#xc0;" horiz-adv-x="1251" d="M-113 0l17 59q37 0 61.5 10.5t49.5 39t65 88.5l794 1179h35l78 -1110q4 -55 9 -86t19 -59.5t41.5 -45t76.5 -16.5l-15 -59h-497l16 59q78 0 114.5 22t36.5 95q0 20 -7.5 128.5t-12.5 176.5h-383l-143 -215q-68 -100 -68 -149q0 -36 31.5 -47t79.5 -11l-15 -59h-383z M444 569h318l-31 426zM576 1812h231l111 -354h-37z" />
<glyph unicode="&#xc1;" horiz-adv-x="1251" d="M-113 0l17 59q37 0 61.5 10.5t49.5 39t65 88.5l794 1179h35l78 -1110q4 -55 9 -86t19 -59.5t41.5 -45t76.5 -16.5l-15 -59h-497l16 59q78 0 114.5 22t36.5 95q0 20 -7.5 128.5t-12.5 176.5h-383l-143 -215q-68 -100 -68 -149q0 -36 31.5 -47t79.5 -11l-15 -59h-383z M444 569h318l-31 426zM923 1499l150 354h231l-344 -354h-37z" />
<glyph unicode="&#xc2;" horiz-adv-x="1251" d="M-113 0l17 59q37 0 61.5 10.5t49.5 39t65 88.5l794 1179h35l78 -1110q4 -55 9 -86t19 -59.5t41.5 -45t76.5 -16.5l-15 -59h-497l16 59q78 0 114.5 22t36.5 95q0 20 -7.5 128.5t-12.5 176.5h-383l-143 -215q-68 -100 -68 -149q0 -36 31.5 -47t79.5 -11l-15 -59h-383z M444 569h318l-31 426zM618 1436l303 319h138l98 -319h-37l-174 184l-266 -184h-62z" />
<glyph unicode="&#xc3;" horiz-adv-x="1251" d="M-113 0l17 59q37 0 61.5 10.5t49.5 39t65 88.5l794 1179h35l78 -1110q4 -55 9 -86t19 -59.5t41.5 -45t76.5 -16.5l-15 -59h-497l16 59q78 0 114.5 22t36.5 95q0 20 -7.5 128.5t-12.5 176.5h-383l-143 -215q-68 -100 -68 -149q0 -36 31.5 -47t79.5 -11l-15 -59h-383z M444 569h318l-31 426zM551 1517q89 189 252 189q48 0 129.5 -28.5t124.5 -28.5q115 0 162 53h59q-87 -187 -276 -187q-37 0 -60.5 8t-60 25t-61 26t-54.5 9q-101 0 -164 -66h-51z" />
<glyph unicode="&#xc4;" horiz-adv-x="1251" d="M-113 0l17 59q37 0 61.5 10.5t49.5 39t65 88.5l794 1179h35l78 -1110q4 -55 9 -86t19 -59.5t41.5 -45t76.5 -16.5l-15 -59h-497l16 59q78 0 114.5 22t36.5 95q0 20 -7.5 128.5t-12.5 176.5h-383l-143 -215q-68 -100 -68 -149q0 -36 31.5 -47t79.5 -11l-15 -59h-383z M444 569h318l-31 426zM627 1604q0 47 33 82t82 35q32 0 59 -16t42 -42.5t15 -58.5q0 -47 -33 -82t-83 -35q-48 0 -81.5 35t-33.5 82zM977 1604q0 49 34 83t83 34q48 0 82.5 -33.5t34.5 -83.5t-34.5 -83.5t-82.5 -33.5t-82.5 35.5t-34.5 81.5z" />
<glyph unicode="&#xc5;" horiz-adv-x="1251" d="M-113 0l17 59q37 0 61.5 10.5t49.5 39t65 88.5l794 1179h35l78 -1110q4 -55 9 -86t19 -59.5t41.5 -45t76.5 -16.5l-15 -59h-497l16 59q78 0 114.5 22t36.5 95q0 20 -7.5 128.5t-12.5 176.5h-383l-143 -215q-68 -100 -68 -149q0 -36 31.5 -47t79.5 -11l-15 -59h-383z M444 569h318l-31 426zM770 1629q0 74 51.5 127t124.5 53t123.5 -52.5t50.5 -127.5q0 -77 -51 -129t-125 -52q-70 0 -122 53.5t-52 127.5zM852 1629q0 -41 27 -70t67 -29q39 0 65.5 29t26.5 70t-26.5 69.5t-65.5 28.5q-40 0 -67 -29t-27 -69z" />
<glyph unicode="&#xc6;" horiz-adv-x="1821" d="M-123 0l14 55q50 5 84.5 22t75 59t105.5 128l624 821q72 94 88.5 121.5t16.5 50.5q0 37 -58 37h-69l16 58h1026l-63 -318h-43v74q0 78 -67.5 111.5t-227.5 33.5h-215l-131 -491h133q91 0 137.5 13.5t78 52.5t66.5 120h45l-131 -487h-45q1 14 5 44.5t4 45.5q0 74 -42 98.5 t-169 24.5h-105q-8 -30 -30.5 -117t-39.5 -152.5t-38 -150.5t-21 -92q0 -25 18 -38.5t63 -19.5t124 -6q100 0 176 13t133.5 41t111.5 77t120 129l34 -18l-131 -340h-1038l14 55q84 0 117.5 51t61.5 158l69 260h-317l-197 -260q-17 -21 -44.5 -54t-43.5 -62t-16 -56 q0 -16 34.5 -26.5t79.5 -10.5l-14 -55h-379zM524 612h273l145 545z" />
<glyph unicode="&#xc7;" horiz-adv-x="1366" d="M117 541q0 163 65.5 316.5t180 271t261.5 183.5t308 66q58 0 91.5 -6t123 -22.5t125.5 -16.5q19 0 29.5 7.5t27.5 37.5h43l-67 -424h-48q-23 342 -331 342q-152 0 -285.5 -109.5t-213 -293.5t-79.5 -397q0 -113 41.5 -207t124 -149.5t197.5 -55.5q65 0 120.5 13t110.5 41 t110.5 73t114.5 108l45 -40q-117 -140 -247 -223t-289 -83q-160 0 -288.5 73.5t-199.5 203.5t-71 291zM400 -383l14 55q64 -29 90.5 -38t50.5 -9q57 0 95.5 27.5t38.5 66.5q0 90 -156 93l127 188h68l-64 -109q97 -12 140.5 -47.5t43.5 -103.5q0 -50 -31.5 -88t-90 -60 t-130.5 -22q-53 0 -88.5 8.5t-107.5 38.5z" />
<glyph unicode="&#xc8;" horiz-adv-x="1251" d="M27 0l14 55q83 0 115 51t61 158q16 57 45 165t82.5 308t87 328.5t33.5 146.5q0 86 -84 86h-53l14 54h963l-64 -318h-45l2 74q0 78 -67.5 111.5t-227.5 33.5h-205l-131 -491h123q91 0 137.5 13.5t77 51t66.5 121.5h47l-131 -487h-47q10 47 10 90q0 74 -42 98.5t-169 24.5 h-94l-107 -395q-22 -88 -22 -117q0 -25 18 -38.5t61.5 -19.5t120.5 -6q99 0 174.5 13t133 41.5t110.5 77t115 128.5l37 -18l-131 -340h-1028zM596 1833h231l111 -354h-37z" />
<glyph unicode="&#xc9;" horiz-adv-x="1251" d="M27 0l14 55q83 0 115 51t61 158q16 57 45 165t82.5 308t87 328.5t33.5 146.5q0 86 -84 86h-53l14 54h963l-64 -318h-45l2 74q0 78 -67.5 111.5t-227.5 33.5h-205l-131 -491h123q91 0 137.5 13.5t77 51t66.5 121.5h47l-131 -487h-47q10 47 10 90q0 74 -42 98.5t-169 24.5 h-94l-107 -395q-22 -88 -22 -117q0 -25 18 -38.5t61.5 -19.5t120.5 -6q99 0 174.5 13t133 41.5t110.5 77t115 128.5l37 -18l-131 -340h-1028zM821 1479l150 354h231l-344 -354h-37z" />
<glyph unicode="&#xca;" horiz-adv-x="1251" d="M27 0l14 55q83 0 115 51t61 158q16 57 45 165t82.5 308t87 328.5t33.5 146.5q0 86 -84 86h-53l14 54h963l-64 -318h-45l2 74q0 78 -67.5 111.5t-227.5 33.5h-205l-131 -491h123q91 0 137.5 13.5t77 51t66.5 121.5h47l-131 -487h-47q10 47 10 90q0 74 -42 98.5t-169 24.5 h-94l-107 -395q-22 -88 -22 -117q0 -25 18 -38.5t61.5 -19.5t120.5 -6q99 0 174.5 13t133 41.5t110.5 77t115 128.5l37 -18l-131 -340h-1028zM618 1457l303 319h138l98 -319h-37l-174 184l-266 -184h-62z" />
<glyph unicode="&#xcb;" horiz-adv-x="1251" d="M27 0l14 55q83 0 115 51t61 158q16 57 45 165t82.5 308t87 328.5t33.5 146.5q0 86 -84 86h-53l14 54h963l-64 -318h-45l2 74q0 78 -67.5 111.5t-227.5 33.5h-205l-131 -491h123q91 0 137.5 13.5t77 51t66.5 121.5h47l-131 -487h-47q10 47 10 90q0 74 -42 98.5t-169 24.5 h-94l-107 -395q-22 -88 -22 -117q0 -25 18 -38.5t61.5 -19.5t120.5 -6q99 0 174.5 13t133 41.5t110.5 77t115 128.5l37 -18l-131 -340h-1028zM606 1604q0 47 33 82t82 35q32 0 59 -16t42 -42.5t15 -58.5q0 -47 -33 -82t-83 -35q-48 0 -81.5 35t-33.5 82zM956 1604 q0 49 34 83t83 34q48 0 82.5 -33.5t34.5 -83.5t-34.5 -83.5t-82.5 -33.5t-82.5 35.5t-34.5 81.5z" />
<glyph unicode="&#xcc;" horiz-adv-x="682" d="M-8 0l14 55q84 0 117 51t59 158q16 57 45 165t82.5 308t87 328.5t33.5 146.5q0 44 -19.5 64t-64.5 20h-55l14 56h502l-14 -56q-82 0 -114 -49.5t-63 -159.5q-27 -102 -70 -263t-109 -417.5t-66 -269.5q0 -82 84 -82h53l-14 -55h-502zM269 1833h231l111 -354h-37z" />
<glyph unicode="&#xcd;" horiz-adv-x="682" d="M-8 0l14 55q84 0 117 51t59 158q16 57 45 165t82.5 308t87 328.5t33.5 146.5q0 44 -19.5 64t-64.5 20h-55l14 56h502l-14 -56q-82 0 -114 -49.5t-63 -159.5q-27 -102 -70 -263t-109 -417.5t-66 -269.5q0 -82 84 -82h53l-14 -55h-502zM596 1458l150 354h231l-344 -354h-37 z" />
<glyph unicode="&#xce;" horiz-adv-x="682" d="M-8 0l14 55q84 0 117 51t59 158q16 57 45 165t82.5 308t87 328.5t33.5 146.5q0 44 -19.5 64t-64.5 20h-55l14 56h502l-14 -56q-82 0 -114 -49.5t-63 -159.5q-27 -102 -70 -263t-109 -417.5t-66 -269.5q0 -82 84 -82h53l-14 -55h-502zM331 1457l303 319h138l98 -319h-37 l-174 184l-266 -184h-62z" />
<glyph unicode="&#xcf;" horiz-adv-x="682" d="M-8 0l14 55q84 0 117 51t59 158q16 57 45 165t82.5 308t87 328.5t33.5 146.5q0 44 -19.5 64t-64.5 20h-55l14 56h502l-14 -56q-82 0 -114 -49.5t-63 -159.5q-27 -102 -70 -263t-109 -417.5t-66 -269.5q0 -82 84 -82h53l-14 -55h-502zM319 1604q0 47 33 82t82 35 q32 0 59 -16t42 -42.5t15 -58.5q0 -47 -33 -82t-83 -35q-48 0 -81.5 35t-33.5 82zM669 1604q0 49 34 83t83 34q48 0 82.5 -33.5t34.5 -83.5t-34.5 -83.5t-82.5 -33.5t-82.5 35.5t-34.5 81.5z" />
<glyph unicode="&#xd0;" horiz-adv-x="1479" d="M27 0l14 55q83 0 115 51t61 158l105 385h-154l25 94h153q13 47 38.5 139.5t53 199t27.5 128.5q0 86 -84 86h-53l14 56h475q177 0 300 -43t192 -118.5t98 -176.5t29 -226q0 -369 -216 -578.5t-739 -209.5h-454zM414 156q0 -39 29 -53.5t106 -14.5q160 0 284.5 62 t206 168.5t123 239.5t41.5 276q0 138 -44 235.5t-127.5 148t-203.5 50.5q-75 0 -108 -15q-22 -6 -29 -30q-1 -5 -26 -96t-39 -145t-35 -132t-29 -107h273l-25 -94h-274q-14 -51 -42 -159t-54.5 -216.5t-26.5 -117.5z" />
<glyph unicode="&#xd1;" horiz-adv-x="1366" d="M-10 0l14 55q61 0 95 27t47 62t34 120l228 928q-17 48 -31.5 68t-37.5 26.5t-73 9.5l15 56h292l424 -1012l199 743q7 21 14 46t11 44.5t4 38.5q0 84 -84 84h-54l15 56h391l-14 -56q-85 0 -116.5 -50.5t-62.5 -162.5q-29 -111 -86.5 -330t-122.5 -464t-87 -316h-43 l-482 1110q-14 -57 -31.5 -130t-72.5 -304t-86 -365t-31 -141q0 -59 34 -73.5t103 -14.5l-14 -55h-391zM592 1517q89 189 252 189q48 0 129.5 -28.5t124.5 -28.5q115 0 162 53h59q-87 -187 -276 -187q-37 0 -60.5 8t-60 25t-61 26t-54.5 9q-101 0 -164 -66h-51z" />
<glyph unicode="&#xd2;" horiz-adv-x="1479" d="M96 465q0 176 72.5 342.5t199 295t288.5 202t335 73.5q152 0 267 -61t178 -170t63 -254q0 -179 -71 -345t-197 -297t-285.5 -204.5t-331.5 -73.5q-118 0 -212.5 33.5t-164 99t-105.5 158t-36 201.5zM328 418q0 -177 78 -270t227 -93q148 0 267.5 87.5t201 227t124 299.5 t42.5 294q0 100 -36.5 176.5t-105 116.5t-161.5 40q-148 0 -269 -83t-203 -217.5t-123.5 -288.5t-41.5 -289zM678 1853h231l111 -354h-37z" />
<glyph unicode="&#xd3;" horiz-adv-x="1479" d="M96 465q0 176 72.5 342.5t199 295t288.5 202t335 73.5q152 0 267 -61t178 -170t63 -254q0 -179 -71 -345t-197 -297t-285.5 -204.5t-331.5 -73.5q-118 0 -212.5 33.5t-164 99t-105.5 158t-36 201.5zM328 418q0 -177 78 -270t227 -93q148 0 267.5 87.5t201 227t124 299.5 t42.5 294q0 100 -36.5 176.5t-105 116.5t-161.5 40q-148 0 -269 -83t-203 -217.5t-123.5 -288.5t-41.5 -289zM985 1479l150 354h231l-344 -354h-37z" />
<glyph unicode="&#xd4;" horiz-adv-x="1479" d="M96 465q0 176 72.5 342.5t199 295t288.5 202t335 73.5q152 0 267 -61t178 -170t63 -254q0 -179 -71 -345t-197 -297t-285.5 -204.5t-331.5 -73.5q-118 0 -212.5 33.5t-164 99t-105.5 158t-36 201.5zM328 418q0 -177 78 -270t227 -93q148 0 267.5 87.5t201 227t124 299.5 t42.5 294q0 100 -36.5 176.5t-105 116.5t-161.5 40q-148 0 -269 -83t-203 -217.5t-123.5 -288.5t-41.5 -289zM741 1457l303 319h138l98 -319h-37l-174 184l-266 -184h-62z" />
<glyph unicode="&#xd5;" horiz-adv-x="1479" d="M96 465q0 176 72.5 342.5t199 295t288.5 202t335 73.5q152 0 267 -61t178 -170t63 -254q0 -179 -71 -345t-197 -297t-285.5 -204.5t-331.5 -73.5q-118 0 -212.5 33.5t-164 99t-105.5 158t-36 201.5zM328 418q0 -177 78 -270t227 -93q148 0 267.5 87.5t201 227t124 299.5 t42.5 294q0 100 -36.5 176.5t-105 116.5t-161.5 40q-148 0 -269 -83t-203 -217.5t-123.5 -288.5t-41.5 -289zM653 1538q89 189 252 189q48 0 129.5 -28.5t124.5 -28.5q115 0 162 53h59q-87 -187 -276 -187q-37 0 -60.5 8t-60 25t-61 26t-54.5 9q-101 0 -164 -66h-51z" />
<glyph unicode="&#xd6;" horiz-adv-x="1479" d="M96 465q0 176 72.5 342.5t199 295t288.5 202t335 73.5q152 0 267 -61t178 -170t63 -254q0 -179 -71 -345t-197 -297t-285.5 -204.5t-331.5 -73.5q-118 0 -212.5 33.5t-164 99t-105.5 158t-36 201.5zM328 418q0 -177 78 -270t227 -93q148 0 267.5 87.5t201 227t124 299.5 t42.5 294q0 100 -36.5 176.5t-105 116.5t-161.5 40q-148 0 -269 -83t-203 -217.5t-123.5 -288.5t-41.5 -289zM750 1604q0 47 33 82t82 35q32 0 59 -16t42 -42.5t15 -58.5q0 -47 -33 -82t-83 -35q-48 0 -81.5 35t-33.5 82zM1100 1604q0 49 34 83t83 34q48 0 82.5 -33.5 t34.5 -83.5t-34.5 -83.5t-82.5 -33.5t-82.5 35.5t-34.5 81.5z" />
<glyph unicode="&#xd7;" horiz-adv-x="1382" d="M285 377l397 313l-223 307l78 62l225 -307l397 315l58 -78l-400 -313l225 -307l-77 -62l-226 305l-397 -313z" />
<glyph unicode="&#xd8;" horiz-adv-x="1479" d="M53 0l148 150q-103 137 -103 317q0 174 72.5 339.5t197 294t285.5 203t332 74.5q206 0 342 -104l146 145l61 -59l-145 -143q60 -78 85 -147t25 -165q0 -244 -121.5 -459.5t-325.5 -344t-436 -128.5q-118 0 -200.5 26t-155.5 89l-147 -147zM330 420q0 -63 12 -131l879 876 q-84 131 -256 131q-146 0 -266 -84t-201 -217.5t-124.5 -286t-43.5 -288.5zM373 201q77 -146 262 -146q148 0 268 87t201.5 227t123.5 297t42 295q0 61 -15 122z" />
<glyph unicode="&#xd9;" horiz-adv-x="1479" d="M250 350q0 66 10.5 125.5t48.5 200.5q15 54 46 167t61 230.5t30 136.5q0 86 -84 86h-55l15 56h505l-16 -56q-82 0 -113.5 -49.5t-60.5 -159.5l-127 -473q-40 -151 -50.5 -206.5t-10.5 -108.5q0 -96 82.5 -163.5t199.5 -67.5t198 63t127.5 157.5t81.5 226t54 204.5 q14 50 45.5 165t56.5 212t25 116q0 84 -84 84h-55l14 56h391l-14 -56q-81 0 -113.5 -51t-60.5 -158l-131 -491q-38 -146 -76 -251t-98 -188.5t-156.5 -133.5t-239.5 -50q-97 0 -178 27t-142.5 78.5t-93.5 121.5t-32 150zM699 1833h231l111 -354h-37z" />
<glyph unicode="&#xda;" horiz-adv-x="1479" d="M250 350q0 66 10.5 125.5t48.5 200.5q15 54 46 167t61 230.5t30 136.5q0 86 -84 86h-55l15 56h505l-16 -56q-82 0 -113.5 -49.5t-60.5 -159.5l-127 -473q-40 -151 -50.5 -206.5t-10.5 -108.5q0 -96 82.5 -163.5t199.5 -67.5t198 63t127.5 157.5t81.5 226t54 204.5 q14 50 45.5 165t56.5 212t25 116q0 84 -84 84h-55l14 56h391l-14 -56q-81 0 -113.5 -51t-60.5 -158l-131 -491q-38 -146 -76 -251t-98 -188.5t-156.5 -133.5t-239.5 -50q-97 0 -178 27t-142.5 78.5t-93.5 121.5t-32 150zM1026 1458l150 354h231l-344 -354h-37z" />
<glyph unicode="&#xdb;" horiz-adv-x="1479" d="M250 350q0 66 10.5 125.5t48.5 200.5q15 54 46 167t61 230.5t30 136.5q0 86 -84 86h-55l15 56h505l-16 -56q-82 0 -113.5 -49.5t-60.5 -159.5l-127 -473q-40 -151 -50.5 -206.5t-10.5 -108.5q0 -96 82.5 -163.5t199.5 -67.5t198 63t127.5 157.5t81.5 226t54 204.5 q14 50 45.5 165t56.5 212t25 116q0 84 -84 84h-55l14 56h391l-14 -56q-81 0 -113.5 -51t-60.5 -158l-131 -491q-38 -146 -76 -251t-98 -188.5t-156.5 -133.5t-239.5 -50q-97 0 -178 27t-142.5 78.5t-93.5 121.5t-32 150zM741 1457l303 319h138l98 -319h-37l-174 184 l-266 -184h-62z" />
<glyph unicode="&#xdc;" horiz-adv-x="1479" d="M250 350q0 66 10.5 125.5t48.5 200.5q15 54 46 167t61 230.5t30 136.5q0 86 -84 86h-55l15 56h505l-16 -56q-82 0 -113.5 -49.5t-60.5 -159.5l-127 -473q-40 -151 -50.5 -206.5t-10.5 -108.5q0 -96 82.5 -163.5t199.5 -67.5t198 63t127.5 157.5t81.5 226t54 204.5 q14 50 45.5 165t56.5 212t25 116q0 84 -84 84h-55l14 56h391l-14 -56q-81 0 -113.5 -51t-60.5 -158l-131 -491q-38 -146 -76 -251t-98 -188.5t-156.5 -133.5t-239.5 -50q-97 0 -178 27t-142.5 78.5t-93.5 121.5t-32 150zM750 1604q0 47 33 82t82 35q32 0 59 -16t42 -42.5 t15 -58.5q0 -47 -33 -82t-83 -35q-48 0 -81.5 35t-33.5 82zM1100 1604q0 49 34 83t83 34q48 0 82.5 -33.5t34.5 -83.5t-34.5 -83.5t-82.5 -33.5t-82.5 35.5t-34.5 81.5z" />
<glyph unicode="&#xdd;" horiz-adv-x="1139" d="M170 0l14 55q83 0 124 18t60.5 57.5t43.5 135.5l96 359l-158 518q-24 77 -39.5 104.5t-42.5 38t-82 12.5l15 54h485l-14 -54q-13 -1 -40.5 -3t-45 -6.5t-31.5 -17.5t-14 -34q0 -8 26 -102.5t62.5 -217.5t52.5 -174q74 83 160.5 195.5t143 200t56.5 108.5q0 51 -92 51h-28 l14 54h393l-14 -54q-43 -9 -70 -26t-69.5 -66t-124.5 -155l-328 -426q-14 -49 -44 -159t-55.5 -209.5t-25.5 -117.5q0 -84 84 -84h76l-15 -55h-573zM882 1458l150 354h231l-344 -354h-37z" />
<glyph unicode="&#xde;" horiz-adv-x="1251" d="M27 0l14 55q60 0 93.5 28t48 65.5t34.5 115.5q16 57 45 165t82.5 308t87 328.5t33.5 146.5q0 84 -84 84h-55l14 56h502l-17 -56q-74 -1 -107 -48.5t-59 -141.5q109 0 198 -8.5t169 -39.5t130 -97.5t50 -176.5q0 -117 -67 -210t-186 -145t-267 -52q-73 0 -217 16 q-1 -5 -21 -69t-30 -107t-10 -82q0 -80 86 -80h73l-16 -55h-524zM494 487q126 -16 168 -16q149 0 231 84.5t82 237.5q0 116 -57.5 168.5t-186.5 52.5q-44 0 -66.5 -9.5t-37.5 -41t-33 -99.5z" />
<glyph unicode="&#xdf;" d="M-332 -303q0 24 13 47t35 37t46 14q33 0 57.5 -24.5t24.5 -57.5q0 -18 -6 -30q-6 -16 -6 -19q0 -18 27 -18q86 0 140 90t80.5 209.5t50 297.5t34.5 232q59 270 88.5 385.5t91.5 250t159.5 215.5t235.5 81q128 0 202.5 -71.5t74.5 -192.5q0 -90 -40 -158.5t-104 -112 t-157 -84.5q121 -39 169 -100t48 -176q0 -138 -61.5 -263t-163.5 -200.5t-215 -75.5q-71 0 -115.5 36.5t-44.5 96.5q0 49 27 79t69 30q84 0 84 -94q0 -12 -8 -32t-8 -30q0 -24 30 -24q70 0 120 94t76 217t26 197q0 85 -21.5 124.5t-58 53t-133.5 33.5l18 67q98 3 147.5 39 t87.5 129q46 108 46 207q0 74 -27 112t-78 38q-40 0 -81.5 -33t-72.5 -88q-63 -116 -113.5 -290t-121.5 -460q-56 -239 -80.5 -334.5t-80.5 -234t-146 -238.5t-207 -100q-66 0 -112 37t-46 92z" />
<glyph unicode="&#xe0;" d="M27 221q0 104 51.5 229.5t137 234.5t193.5 177t218 68q52 0 85 -19t72 -73l17 65h153q-21 -80 -72 -275.5t-85.5 -333t-34.5 -153.5q0 -45 20 -45q18 0 62.5 41.5t97.5 106.5l33 -37q-95 -123 -163 -178.5t-126 -55.5q-37 0 -62.5 26.5t-25.5 68.5q0 45 35 206 q-79 -139 -185 -220t-208 -81q-59 0 -108.5 32t-77 88.5t-27.5 127.5zM211 264q0 -82 32 -125t93 -43q77 0 149 69t130 176t91 215t33 179q0 58 -31.5 95.5t-80.5 37.5q-104 0 -201 -105t-156 -250.5t-59 -248.5zM289 1382h231l111 -354h-37z" />
<glyph unicode="&#xe1;" d="M27 221q0 104 51.5 229.5t137 234.5t193.5 177t218 68q52 0 85 -19t72 -73l17 65h153q-21 -80 -72 -275.5t-85.5 -333t-34.5 -153.5q0 -45 20 -45q18 0 62.5 41.5t97.5 106.5l33 -37q-95 -123 -163 -178.5t-126 -55.5q-37 0 -62.5 26.5t-25.5 68.5q0 45 35 206 q-79 -139 -185 -220t-208 -81q-59 0 -108.5 32t-77 88.5t-27.5 127.5zM211 264q0 -82 32 -125t93 -43q77 0 149 69t130 176t91 215t33 179q0 58 -31.5 95.5t-80.5 37.5q-104 0 -201 -105t-156 -250.5t-59 -248.5zM616 1028l150 354h231l-344 -354h-37z" />
<glyph unicode="&#xe2;" d="M27 221q0 104 51.5 229.5t137 234.5t193.5 177t218 68q52 0 85 -19t72 -73l17 65h153q-21 -80 -72 -275.5t-85.5 -333t-34.5 -153.5q0 -45 20 -45q18 0 62.5 41.5t97.5 106.5l33 -37q-95 -123 -163 -178.5t-126 -55.5q-37 0 -62.5 26.5t-25.5 68.5q0 45 35 206 q-79 -139 -185 -220t-208 -81q-59 0 -108.5 32t-77 88.5t-27.5 127.5zM211 264q0 -82 32 -125t93 -43q77 0 149 69t130 176t91 215t33 179q0 58 -31.5 95.5t-80.5 37.5q-104 0 -201 -105t-156 -250.5t-59 -248.5zM372 1027l303 319h138l98 -319h-37l-174 184l-266 -184h-62z " />
<glyph unicode="&#xe3;" d="M27 221q0 104 51.5 229.5t137 234.5t193.5 177t218 68q52 0 85 -19t72 -73l17 65h153q-21 -80 -72 -275.5t-85.5 -333t-34.5 -153.5q0 -45 20 -45q18 0 62.5 41.5t97.5 106.5l33 -37q-95 -123 -163 -178.5t-126 -55.5q-37 0 -62.5 26.5t-25.5 68.5q0 45 35 206 q-79 -139 -185 -220t-208 -81q-59 0 -108.5 32t-77 88.5t-27.5 127.5zM211 264q0 -82 32 -125t93 -43q77 0 149 69t130 176t91 215t33 179q0 58 -31.5 95.5t-80.5 37.5q-104 0 -201 -105t-156 -250.5t-59 -248.5zM264 1087q89 189 252 189q48 0 129.5 -28.5t124.5 -28.5 q115 0 162 53h59q-87 -187 -276 -187q-37 0 -60.5 8t-60 25t-61 26t-54.5 9q-101 0 -164 -66h-51z" />
<glyph unicode="&#xe4;" d="M27 221q0 104 51.5 229.5t137 234.5t193.5 177t218 68q52 0 85 -19t72 -73l17 65h153q-21 -80 -72 -275.5t-85.5 -333t-34.5 -153.5q0 -45 20 -45q18 0 62.5 41.5t97.5 106.5l33 -37q-95 -123 -163 -178.5t-126 -55.5q-37 0 -62.5 26.5t-25.5 68.5q0 45 35 206 q-79 -139 -185 -220t-208 -81q-59 0 -108.5 32t-77 88.5t-27.5 127.5zM211 264q0 -82 32 -125t93 -43q77 0 149 69t130 176t91 215t33 179q0 58 -31.5 95.5t-80.5 37.5q-104 0 -201 -105t-156 -250.5t-59 -248.5zM340 1194q0 47 33 82t82 35q32 0 59 -16t42 -42.5t15 -58.5 q0 -47 -33 -82t-83 -35q-48 0 -81.5 35t-33.5 82zM690 1194q0 49 34 83t83 34q48 0 82.5 -33.5t34.5 -83.5t-34.5 -83.5t-82.5 -33.5t-82.5 35.5t-34.5 81.5z" />
<glyph unicode="&#xe5;" d="M27 221q0 104 51.5 229.5t137 234.5t193.5 177t218 68q52 0 85 -19t72 -73l17 65h153q-21 -80 -72 -275.5t-85.5 -333t-34.5 -153.5q0 -45 20 -45q18 0 62.5 41.5t97.5 106.5l33 -37q-95 -123 -163 -178.5t-126 -55.5q-37 0 -62.5 26.5t-25.5 68.5q0 45 35 206 q-79 -139 -185 -220t-208 -81q-59 0 -108.5 32t-77 88.5t-27.5 127.5zM211 264q0 -82 32 -125t93 -43q77 0 149 69t130 176t91 215t33 179q0 58 -31.5 95.5t-80.5 37.5q-104 0 -201 -105t-156 -250.5t-59 -248.5zM524 1219q0 74 51.5 127t124.5 53t123.5 -52.5t50.5 -127.5 q0 -77 -51 -129t-125 -52q-70 0 -122 53.5t-52 127.5zM606 1219q0 -41 27 -70t67 -29q39 0 65.5 29t26.5 70t-26.5 69.5t-65.5 28.5q-40 0 -67 -29t-27 -69z" />
<glyph unicode="&#xe6;" horiz-adv-x="1366" d="M12 221q0 104 49 226t136 233t194.5 179.5t218.5 68.5q53 0 87 -19.5t71 -70.5l16 65h127l-26 -102q100 74 163.5 101.5t137.5 27.5q85 0 132.5 -39.5t47.5 -112.5q0 -88 -72 -173.5t-188 -135.5q-73 -30 -139 -45t-172 -33q-25 -83 -25 -125q0 -81 56 -131.5t147 -50.5 q41 0 79.5 14t71.5 34t59 40t74 59l29 -36q-135 -125 -224.5 -173.5t-187.5 -48.5q-246 0 -282 258q-81 -122 -177.5 -190t-191.5 -68q-91 0 -151 71.5t-60 176.5zM197 256q0 -77 33 -118.5t92 -41.5q100 0 193 114.5t150.5 270t57.5 252.5q0 58 -32 95.5t-81 37.5 q-80 0 -154 -62t-133.5 -164.5t-92.5 -206t-33 -177.5zM815 442q115 32 172 60q95 44 163.5 129.5t68.5 159.5q0 33 -21 55t-53 22q-61 0 -135 -77q-71 -73 -114 -151t-81 -198z" />
<glyph unicode="&#xe7;" horiz-adv-x="909" d="M72 309q0 109 44.5 219t124 202t182 146t214.5 54q65 0 117 -21.5t81 -60t29 -88.5q0 -51 -27 -81t-71 -30q-38 0 -64 27t-26 65q0 27 12 45q6 9 12.5 18t10.5 17t4 17q0 13 -24 21.5t-64 8.5q-70 0 -136 -46t-120 -128.5t-84.5 -184t-30.5 -210.5q0 -108 52 -176 t136 -68q61 0 121.5 41t141.5 135l41 -26q-63 -82 -119.5 -133.5t-116 -75t-129.5 -23.5q-95 0 -165 41t-108 117t-38 178zM113 -383l14 55q64 -29 90.5 -38t50.5 -9q57 0 95.5 27.5t38.5 66.5q0 90 -156 93l127 188h68l-64 -109q97 -12 140.5 -47.5t43.5 -103.5 q0 -50 -31.5 -88t-90 -60t-130.5 -22q-53 0 -88.5 8.5t-107.5 38.5z" />
<glyph unicode="&#xe8;" horiz-adv-x="909" d="M66 272q0 147 87.5 301.5t230 255.5t290.5 101q78 0 124 -41t46 -111q0 -87 -72.5 -173t-187.5 -134q-110 -48 -312 -80q-11 -34 -16.5 -61.5t-5.5 -59.5q0 -78 58 -132t145 -54q34 0 57 5.5t55 21t67.5 41t102.5 77.5l29 -34q-124 -111 -211.5 -166.5t-198.5 -55.5 q-86 0 -151 38t-101 106t-36 155zM293 442q110 32 172 60q94 43 162.5 128.5t68.5 162.5q0 31 -21 53t-50 22q-70 0 -139 -74t-119.5 -175.5t-73.5 -176.5zM310 1382h231l111 -354h-37z" />
<glyph unicode="&#xe9;" horiz-adv-x="909" d="M66 272q0 147 87.5 301.5t230 255.5t290.5 101q78 0 124 -41t46 -111q0 -87 -72.5 -173t-187.5 -134q-110 -48 -312 -80q-11 -34 -16.5 -61.5t-5.5 -59.5q0 -78 58 -132t145 -54q34 0 57 5.5t55 21t67.5 41t102.5 77.5l29 -34q-124 -111 -211.5 -166.5t-198.5 -55.5 q-86 0 -151 38t-101 106t-36 155zM293 442q110 32 172 60q94 43 162.5 128.5t68.5 162.5q0 31 -21 53t-50 22q-70 0 -139 -74t-119.5 -175.5t-73.5 -176.5zM637 1028l150 354h231l-344 -354h-37z" />
<glyph unicode="&#xea;" horiz-adv-x="909" d="M66 272q0 147 87.5 301.5t230 255.5t290.5 101q78 0 124 -41t46 -111q0 -87 -72.5 -173t-187.5 -134q-110 -48 -312 -80q-11 -34 -16.5 -61.5t-5.5 -59.5q0 -78 58 -132t145 -54q34 0 57 5.5t55 21t67.5 41t102.5 77.5l29 -34q-124 -111 -211.5 -166.5t-198.5 -55.5 q-86 0 -151 38t-101 106t-36 155zM293 442q110 32 172 60q94 43 162.5 128.5t68.5 162.5q0 31 -21 53t-50 22q-70 0 -139 -74t-119.5 -175.5t-73.5 -176.5zM372 1027l303 319h138l98 -319h-37l-174 184l-266 -184h-62z" />
<glyph unicode="&#xeb;" horiz-adv-x="909" d="M66 272q0 147 87.5 301.5t230 255.5t290.5 101q78 0 124 -41t46 -111q0 -87 -72.5 -173t-187.5 -134q-110 -48 -312 -80q-11 -34 -16.5 -61.5t-5.5 -59.5q0 -78 58 -132t145 -54q34 0 57 5.5t55 21t67.5 41t102.5 77.5l29 -34q-124 -111 -211.5 -166.5t-198.5 -55.5 q-86 0 -151 38t-101 106t-36 155zM293 442q110 32 172 60q94 43 162.5 128.5t68.5 162.5q0 31 -21 53t-50 22q-70 0 -139 -74t-119.5 -175.5t-73.5 -176.5zM340 1174q0 47 33 82t82 35q32 0 59 -16t42 -42.5t15 -58.5q0 -47 -33 -82t-83 -35q-48 0 -81.5 35t-33.5 82z M690 1174q0 49 34 83t83 34q48 0 82.5 -33.5t34.5 -83.5t-34.5 -83.5t-82.5 -33.5t-82.5 35.5t-34.5 81.5z" />
<glyph unicode="&#xec;" horiz-adv-x="569" d="M23 1382h231l111 -354h-37zM100 111q0 22 59.5 268.5t98.5 404.5q0 56 -61 56h-74l10 41l338 55q-24 -89 -82.5 -309t-95.5 -363.5t-37 -144.5q0 -35 35 -35q25 0 54 28t106 126l34 -31q-68 -96 -112 -144t-81.5 -69t-78.5 -21q-53 0 -83 37t-30 101z" />
<glyph unicode="&#xed;" horiz-adv-x="569" d="M100 111q0 22 59.5 268.5t98.5 404.5q0 56 -61 56h-74l10 41l338 55q-24 -89 -82.5 -309t-95.5 -363.5t-37 -144.5q0 -35 35 -35q25 0 54 28t106 126l34 -31q-68 -96 -112 -144t-81.5 -69t-78.5 -21q-53 0 -83 37t-30 101zM330 1028l150 354h231l-344 -354h-37z" />
<glyph unicode="&#xee;" horiz-adv-x="569" d="M86 1027l303 319h138l98 -319h-37l-174 184l-266 -184h-62zM100 111q0 22 59.5 268.5t98.5 404.5q0 56 -61 56h-74l10 41l338 55q-24 -89 -82.5 -309t-95.5 -363.5t-37 -144.5q0 -35 35 -35q25 0 54 28t106 126l34 -31q-68 -96 -112 -144t-81.5 -69t-78.5 -21 q-53 0 -83 37t-30 101z" />
<glyph unicode="&#xef;" horiz-adv-x="569" d="M94 1194q0 47 33 82t82 35q32 0 59 -16t42 -42.5t15 -58.5q0 -47 -33 -82t-83 -35q-48 0 -81.5 35t-33.5 82zM100 111q0 22 59.5 268.5t98.5 404.5q0 56 -61 56h-74l10 41l338 55q-24 -89 -82.5 -309t-95.5 -363.5t-37 -144.5q0 -35 35 -35q25 0 54 28t106 126l34 -31 q-68 -96 -112 -144t-81.5 -69t-78.5 -21q-53 0 -83 37t-30 101zM444 1194q0 49 34 83t83 34q48 0 82.5 -33.5t34.5 -83.5t-34.5 -83.5t-82.5 -33.5t-82.5 35.5t-34.5 81.5z" />
<glyph unicode="&#xf0;" d="M66 297q0 147 80.5 295.5t215.5 243t285 94.5q54 0 103 -17q-16 76 -41.5 131t-73.5 119l-252 -104l-29 69l232 99q-62 65 -187 133l27 37q136 -53 233 -142l252 105l29 -66l-219 -92q111 -125 174 -272t63 -305q0 -110 -44.5 -226.5t-124.5 -213t-184.5 -154.5 t-221.5 -58q-141 0 -229 90t-88 234zM250 225q6 -84 52 -137t114 -53q84 0 151.5 65.5t114 167t69.5 204t23 179.5q0 103 -39.5 160t-111.5 57q-111 0 -197 -113t-131 -265.5t-45 -264.5z" />
<glyph unicode="&#xf1;" d="M53 0q23 84 42 156t91 347.5t72 280.5q0 56 -63 56h-74l10 41l340 55l-117 -430q26 36 89.5 132.5t110 152.5t108.5 97.5t137 41.5q58 0 91.5 -37.5t33.5 -99.5q0 -14 -34 -154t-59 -238.5t-40 -154.5q-4 -17 -11 -41.5t-10.5 -46t-3.5 -33.5q0 -11 8 -20t19 -9 q23 0 55 31.5t98 118.5l37 -19q-88 -140 -151.5 -197t-131.5 -57q-43 0 -70.5 34.5t-27.5 88.5q0 23 7 70.5t22 103.5q14 49 45 162.5t55.5 209t24.5 112.5q0 24 -11 38.5t-30 14.5q-77 0 -201 -145q-74 -85 -135 -193.5t-94 -222.5l-66 -246h-166zM264 1087q89 189 252 189 q48 0 129.5 -28.5t124.5 -28.5q115 0 162 53h59q-87 -187 -276 -187q-37 0 -60.5 8t-60 25t-61 26t-54.5 9q-101 0 -164 -66h-51z" />
<glyph unicode="&#xf2;" d="M66 283q0 155 77 305t210 246t288 96q93 0 163 -40.5t109 -115.5t39 -172q0 -142 -82 -289.5t-215.5 -243.5t-275.5 -96q-89 0 -159.5 38.5t-110.5 108.5t-43 163zM250 225q3 -83 49.5 -136.5t114.5 -53.5q107 0 188 109t123.5 257.5t42.5 253.5q0 102 -38 157.5 t-109 55.5q-110 0 -195 -112.5t-130.5 -265.5t-45.5 -265zM310 1382h231l111 -354h-37z" />
<glyph unicode="&#xf3;" d="M66 283q0 155 77 305t210 246t288 96q93 0 163 -40.5t109 -115.5t39 -172q0 -142 -82 -289.5t-215.5 -243.5t-275.5 -96q-89 0 -159.5 38.5t-110.5 108.5t-43 163zM250 225q3 -83 49.5 -136.5t114.5 -53.5q107 0 188 109t123.5 257.5t42.5 253.5q0 102 -38 157.5 t-109 55.5q-110 0 -195 -112.5t-130.5 -265.5t-45.5 -265zM637 1028l150 354h231l-344 -354h-37z" />
<glyph unicode="&#xf4;" d="M66 283q0 155 77 305t210 246t288 96q93 0 163 -40.5t109 -115.5t39 -172q0 -142 -82 -289.5t-215.5 -243.5t-275.5 -96q-89 0 -159.5 38.5t-110.5 108.5t-43 163zM250 225q3 -83 49.5 -136.5t114.5 -53.5q107 0 188 109t123.5 257.5t42.5 253.5q0 102 -38 157.5 t-109 55.5q-110 0 -195 -112.5t-130.5 -265.5t-45.5 -265zM372 1027l303 319h138l98 -319h-37l-174 184l-266 -184h-62z" />
<glyph unicode="&#xf5;" d="M66 283q0 155 77 305t210 246t288 96q93 0 163 -40.5t109 -115.5t39 -172q0 -142 -82 -289.5t-215.5 -243.5t-275.5 -96q-89 0 -159.5 38.5t-110.5 108.5t-43 163zM250 225q3 -83 49.5 -136.5t114.5 -53.5q107 0 188 109t123.5 257.5t42.5 253.5q0 102 -38 157.5 t-109 55.5q-110 0 -195 -112.5t-130.5 -265.5t-45.5 -265zM284 1087q89 189 252 189q48 0 129.5 -28.5t124.5 -28.5q115 0 162 53h59q-87 -187 -276 -187q-37 0 -60.5 8t-60 25t-61 26t-54.5 9q-101 0 -164 -66h-51z" />
<glyph unicode="&#xf6;" d="M66 283q0 155 77 305t210 246t288 96q93 0 163 -40.5t109 -115.5t39 -172q0 -142 -82 -289.5t-215.5 -243.5t-275.5 -96q-89 0 -159.5 38.5t-110.5 108.5t-43 163zM250 225q3 -83 49.5 -136.5t114.5 -53.5q107 0 188 109t123.5 257.5t42.5 253.5q0 102 -38 157.5 t-109 55.5q-110 0 -195 -112.5t-130.5 -265.5t-45.5 -265zM360 1194q0 47 33 82t82 35q32 0 59 -16t42 -42.5t15 -58.5q0 -47 -33 -82t-83 -35q-48 0 -81.5 35t-33.5 82zM710 1194q0 49 34 83t83 34q48 0 82.5 -33.5t34.5 -83.5t-34.5 -83.5t-82.5 -33.5t-82.5 35.5 t-34.5 81.5z" />
<glyph unicode="&#xf7;" horiz-adv-x="1382" d="M266 633l27 98h944l-27 -98h-944zM561 340q0 46 32.5 76t80.5 30q36 0 61 -28t25 -70t-31 -73t-74 -31q-38 0 -66 29t-28 67zM743 1014q0 45 32 74.5t79 29.5q37 0 61.5 -27t24.5 -69q0 -41 -30.5 -72.5t-71.5 -31.5q-40 0 -67.5 28.5t-27.5 67.5z" />
<glyph unicode="&#xf8;" d="M-63 -6l163 143q-20 46 -27 78t-7 76q0 147 79.5 297.5t213 246t282.5 95.5q76 0 131.5 -25t106.5 -82l157 140l43 -50l-164 -143q23 -45 30 -76t7 -92q0 -106 -45.5 -216.5t-129 -205.5t-188 -151t-210.5 -56q-80 0 -137.5 25.5t-106.5 83.5l-158 -137zM252 270l510 451 q-26 147 -141 147q-83 0 -162.5 -80.5t-135 -217.5t-71.5 -300zM254 188q15 -74 55.5 -113.5t102.5 -39.5q106 0 186.5 106.5t123.5 250t46 249.5z" />
<glyph unicode="&#xf9;" d="M72 98q0 59 30 183q8 30 32 122t39.5 149t36.5 141.5t21 90.5q0 56 -63 56h-47l12 41l311 55q-23 -83 -72 -267t-91.5 -350t-42.5 -184q0 -17 11 -28t27 -11q41 0 112.5 73.5t146.5 190.5q80 122 138 260t97 283h166q-22 -80 -69.5 -256.5t-90 -339t-45.5 -188.5 q0 -35 25 -35q15 0 38 19t55.5 55.5t50 57.5t26.5 32l39 -23q-63 -92 -112 -148.5t-87.5 -80t-79.5 -23.5q-54 0 -86.5 31t-32.5 82q0 52 11 107t34 134t29 101q-34 -54 -87 -138t-112.5 -155.5t-125.5 -116.5t-136 -45q-42 0 -75 37t-33 88zM330 1382h231l111 -354h-37z " />
<glyph unicode="&#xfa;" d="M72 98q0 59 30 183q8 30 32 122t39.5 149t36.5 141.5t21 90.5q0 56 -63 56h-47l12 41l311 55q-23 -83 -72 -267t-91.5 -350t-42.5 -184q0 -17 11 -28t27 -11q41 0 112.5 73.5t146.5 190.5q80 122 138 260t97 283h166q-22 -80 -69.5 -256.5t-90 -339t-45.5 -188.5 q0 -35 25 -35q15 0 38 19t55.5 55.5t50 57.5t26.5 32l39 -23q-63 -92 -112 -148.5t-87.5 -80t-79.5 -23.5q-54 0 -86.5 31t-32.5 82q0 52 11 107t34 134t29 101q-34 -54 -87 -138t-112.5 -155.5t-125.5 -116.5t-136 -45q-42 0 -75 37t-33 88zM616 1028l150 354h231 l-344 -354h-37z" />
<glyph unicode="&#xfb;" d="M72 98q0 59 30 183q8 30 32 122t39.5 149t36.5 141.5t21 90.5q0 56 -63 56h-47l12 41l311 55q-23 -83 -72 -267t-91.5 -350t-42.5 -184q0 -17 11 -28t27 -11q41 0 112.5 73.5t146.5 190.5q80 122 138 260t97 283h166q-22 -80 -69.5 -256.5t-90 -339t-45.5 -188.5 q0 -35 25 -35q15 0 38 19t55.5 55.5t50 57.5t26.5 32l39 -23q-63 -92 -112 -148.5t-87.5 -80t-79.5 -23.5q-54 0 -86.5 31t-32.5 82q0 52 11 107t34 134t29 101q-34 -54 -87 -138t-112.5 -155.5t-125.5 -116.5t-136 -45q-42 0 -75 37t-33 88zM331 1027l303 319h138l98 -319 h-37l-174 184l-266 -184h-62z" />
<glyph unicode="&#xfc;" d="M72 98q0 59 30 183q8 30 32 122t39.5 149t36.5 141.5t21 90.5q0 56 -63 56h-47l12 41l311 55q-23 -83 -72 -267t-91.5 -350t-42.5 -184q0 -17 11 -28t27 -11q41 0 112.5 73.5t146.5 190.5q80 122 138 260t97 283h166q-22 -80 -69.5 -256.5t-90 -339t-45.5 -188.5 q0 -35 25 -35q15 0 38 19t55.5 55.5t50 57.5t26.5 32l39 -23q-63 -92 -112 -148.5t-87.5 -80t-79.5 -23.5q-54 0 -86.5 31t-32.5 82q0 52 11 107t34 134t29 101q-34 -54 -87 -138t-112.5 -155.5t-125.5 -116.5t-136 -45q-42 0 -75 37t-33 88zM340 1194q0 47 33 82t82 35 q32 0 59 -16t42 -42.5t15 -58.5q0 -47 -33 -82t-83 -35q-48 0 -81.5 35t-33.5 82zM690 1194q0 49 34 83t83 34q48 0 82.5 -33.5t34.5 -83.5t-34.5 -83.5t-82.5 -33.5t-82.5 35.5t-34.5 81.5z" />
<glyph unicode="&#xfd;" horiz-adv-x="909" d="M-49 -336q0 39 23.5 63.5t62.5 24.5q25 0 65 -25.5t60 -25.5q59 0 124.5 85t137.5 200q-47 361 -168 708q-26 79 -58.5 111.5t-84.5 32.5q-40 0 -82 -7l-6 41l303 58q40 -27 84.5 -171t76 -290.5t60.5 -302.5q53 92 109 187t94.5 182.5t38.5 150.5q0 34 -28.5 56.5 t-57.5 45t-29 56.5q0 39 23.5 62.5t62.5 23.5q53 0 87 -38.5t34 -96.5q0 -87 -90 -289.5t-225.5 -421.5t-274 -367.5t-236.5 -148.5q-47 0 -76.5 27t-29.5 69zM534 1028l150 354h231l-344 -354h-37z" />
<glyph unicode="&#xfe;" d="M-170 -406l10 41q80 0 107.5 33t50.5 125q24 91 69.5 261.5t134 504t137 518.5t48.5 193q0 52 -63 55h-74l10 41l340 53l-188 -698q78 107 157.5 158t175.5 51q70 0 121 -31.5t78 -89t27 -135.5q0 -119 -56 -243t-150.5 -229.5t-202 -167t-204.5 -61.5q-53 0 -137 33 q-20 -69 -50 -180t-30 -133q0 -58 62 -58h61l-10 -41h-424zM252 106q0 -30 26.5 -50.5t61.5 -20.5q124 0 227.5 110.5t162 266t58.5 272.5q0 70 -31.5 111t-88.5 41q-93 0 -160.5 -71.5t-105.5 -159t-76 -210.5q-31 -107 -52.5 -191t-21.5 -98z" />
<glyph unicode="&#xff;" horiz-adv-x="909" d="M-49 -336q0 39 23.5 63.5t62.5 24.5q25 0 65 -25.5t60 -25.5q59 0 124.5 85t137.5 200q-47 361 -168 708q-26 79 -58.5 111.5t-84.5 32.5q-40 0 -82 -7l-6 41l303 58q40 -27 84.5 -171t76 -290.5t60.5 -302.5q53 92 109 187t94.5 182.5t38.5 150.5q0 34 -28.5 56.5 t-57.5 45t-29 56.5q0 39 23.5 62.5t62.5 23.5q53 0 87 -38.5t34 -96.5q0 -87 -90 -289.5t-225.5 -421.5t-274 -367.5t-236.5 -148.5q-47 0 -76.5 27t-29.5 69zM238 1194q0 47 33 82t82 35q32 0 59 -16t42 -42.5t15 -58.5q0 -47 -33 -82t-83 -35q-48 0 -81.5 35t-33.5 82z M588 1194q0 49 34 83t83 34q48 0 82.5 -33.5t34.5 -83.5t-34.5 -83.5t-82.5 -33.5t-82.5 35.5t-34.5 81.5z" />
<glyph unicode="&#x178;" horiz-adv-x="1139" d="M170 0l14 55q83 0 124 18t60.5 57.5t43.5 135.5l96 359l-158 518q-24 77 -39.5 104.5t-42.5 38t-82 12.5l15 54h485l-14 -54q-13 -1 -40.5 -3t-45 -6.5t-31.5 -17.5t-14 -34q0 -8 26 -102.5t62.5 -217.5t52.5 -174q74 83 160.5 195.5t143 200t56.5 108.5q0 51 -92 51h-28 l14 54h393l-14 -54q-43 -9 -70 -26t-69.5 -66t-124.5 -155l-328 -426q-14 -49 -44 -159t-55.5 -209.5t-25.5 -117.5q0 -84 84 -84h76l-15 -55h-573zM565 1604q0 47 33 82t82 35q32 0 59 -16t42 -42.5t15 -58.5q0 -47 -33 -82t-83 -35q-48 0 -81.5 35t-33.5 82zM915 1604 q0 49 34 83t83 34q48 0 82.5 -33.5t34.5 -83.5t-34.5 -83.5t-82.5 -33.5t-82.5 35.5t-34.5 81.5z" />
<glyph unicode="&#x2c6;" horiz-adv-x="682" d="M229 1047l303 319h138l98 -319h-37l-174 184l-266 -184h-62z" />
<glyph unicode="&#x2dc;" horiz-adv-x="682" d="M182 1128q89 189 252 189q48 0 129.5 -28.5t124.5 -28.5q115 0 162 53h59q-87 -187 -276 -187q-37 0 -60.5 8t-60 25t-61 26t-54.5 9q-101 0 -164 -66h-51z" />
<glyph unicode="&#x2000;" horiz-adv-x="926" />
<glyph unicode="&#x2001;" horiz-adv-x="1853" />
<glyph unicode="&#x2002;" horiz-adv-x="926" />
<glyph unicode="&#x2003;" horiz-adv-x="1853" />
<glyph unicode="&#x2004;" horiz-adv-x="617" />
<glyph unicode="&#x2005;" horiz-adv-x="463" />
<glyph unicode="&#x2006;" horiz-adv-x="308" />
<glyph unicode="&#x2007;" horiz-adv-x="308" />
<glyph unicode="&#x2008;" horiz-adv-x="231" />
<glyph unicode="&#x2009;" horiz-adv-x="370" />
<glyph unicode="&#x200a;" horiz-adv-x="102" />
<glyph unicode="&#x2010;" horiz-adv-x="682" d="M76 403l33 121h503l-32 -121h-504z" />
<glyph unicode="&#x2011;" horiz-adv-x="682" d="M76 403l33 121h503l-32 -121h-504z" />
<glyph unicode="&#x2012;" horiz-adv-x="682" d="M76 403l33 121h503l-32 -121h-504z" />
<glyph unicode="&#x2013;" d="M35 410l28 108h928l-28 -108h-928z" />
<glyph unicode="&#x2014;" horiz-adv-x="1821" d="M98 410l29 108h1599l-28 -108h-1600z" />
<glyph unicode="&#x2018;" horiz-adv-x="682" d="M375 1049q0 108 78 193t192 140l27 -43q-83 -56 -121.5 -99t-38.5 -81q0 -16 19 -37t38 -37t33 -35.5t14 -48.5q0 -43 -32.5 -74.5t-79.5 -31.5q-56 0 -92.5 42.5t-36.5 111.5z" />
<glyph unicode="&#x2019;" horiz-adv-x="682" d="M371 938q88 59 126 100.5t38 79.5q0 19 -11 31.5t-38.5 36.5t-40.5 43.5t-13 46.5q0 45 32.5 75.5t78.5 30.5q56 0 92.5 -42.5t36.5 -110.5q0 -109 -81 -194.5t-196 -139.5z" />
<glyph unicode="&#x201c;" horiz-adv-x="1139" d="M434 1049q0 110 79 193.5t196 139.5l24 -43q-86 -56 -124 -98.5t-38 -81.5q0 -18 19.5 -38t38.5 -35.5t34 -36.5t15 -48q0 -43 -33.5 -74.5t-79.5 -31.5q-58 0 -94.5 42.5t-36.5 111.5zM776 1049q0 107 79.5 193.5t191.5 139.5l24 -43q-81 -56 -119.5 -99.5t-38.5 -80.5 q0 -18 10.5 -30.5t37.5 -36.5t41 -43.5t14 -47.5q0 -43 -33.5 -74.5t-79.5 -31.5q-56 0 -91.5 42.5t-35.5 111.5z" />
<glyph unicode="&#x201d;" horiz-adv-x="1139" d="M432 938q89 59 126.5 100.5t37.5 79.5q0 23 -23 41q-44 37 -62.5 59t-18.5 58q0 45 32.5 75.5t77.5 30.5q58 0 94.5 -42.5t36.5 -110.5q0 -109 -80 -194.5t-196 -139.5zM770 938q89 59 126.5 100.5t37.5 79.5q0 23 -23 41q-14 13 -36 32.5t-33 39.5t-11 45q0 44 33 75 t78 31q57 0 93 -42t36 -111q0 -109 -80 -194.5t-196 -139.5z" />
<glyph unicode="&#x202f;" horiz-adv-x="370" />
<glyph unicode="&#x205f;" horiz-adv-x="463" />
<glyph unicode="&#x2122;" horiz-adv-x="2007" d="M197 1147q27 82 55 205h733q-28 -67 -53 -205h-58q13 33 13 59q0 50 -31 66t-125 16h-57l-148 -633q-4 -20 -4 -32q0 -17 22.5 -23t78.5 -6h18l-27 -53h-391l15 53h16q68 0 92 11.5t33 53.5l147 629q-22 2 -49 2q-110 0 -154.5 -29t-66.5 -114h-59zM881 541l12 53 q73 0 93.5 14t33.5 68l133 575l4 19q0 19 -8 27t-27 8h-41l15 47h266l102 -559l367 559h266l-12 -47h-29q-69 0 -82 -54l-135 -585q-4 -22 -4 -27q0 -25 13.5 -33.5t54.5 -11.5h18l-14 -53h-344l12 53q41 0 65.5 6t36 21t17.5 43l137 587l-457 -710h-20l-135 710l-138 -579 q-2 -16 -4 -25t-2 -12q0 -41 64 -41h20l-14 -53h-264z" />
<glyph unicode="&#x25fc;" horiz-adv-x="930" d="M0 0v930h930v-930h-930z" />
</font>
</defs>
</svg>
